<mxfile host="65bd71144e">
    <diagram name="Workflow" id="6AKc0Co7g4jw7QNKDYhZ">
        <mxGraphModel dx="1386" dy="728" grid="1" gridSize="10" guides="1" tooltips="1" connect="1" arrows="1" fold="1" page="1" pageScale="1" pageWidth="2336" pageHeight="1654" math="0" shadow="0">
            <root>
                <mxCell id="0"/>
                <mxCell id="1" parent="0"/>
                <mxCell id="2" style="edgeStyle=none;html=1;exitX=1;exitY=0.5;exitDx=0;exitDy=0;entryX=0;entryY=0.5;entryDx=0;entryDy=0;fontColor=#000000;" parent="1" source="gP1NRVliO_AB3EFOHZDK-1" target="gP1NRVliO_AB3EFOHZDK-13" edge="1">
                    <mxGeometry relative="1" as="geometry"/>
                </mxCell>
                <mxCell id="gP1NRVliO_AB3EFOHZDK-1" value="&lt;font style=&quot;color: rgb(0, 0, 0);&quot;&gt;Start&lt;/font&gt;" style="ellipse;shape=doubleEllipse;html=1;dashed=0;whiteSpace=wrap;aspect=fixed;fontSize=13;fontColor=#000000;" parent="1" vertex="1">
                    <mxGeometry x="230" y="60" width="60" height="60" as="geometry"/>
                </mxCell>
                <mxCell id="gP1NRVliO_AB3EFOHZDK-17" style="edgeStyle=orthogonalEdgeStyle;rounded=0;orthogonalLoop=1;jettySize=auto;html=1;exitX=1;exitY=0.5;exitDx=0;exitDy=0;entryX=0;entryY=0.5;entryDx=0;entryDy=0;fontSize=13;fontColor=#000000;" parent="1" source="gP1NRVliO_AB3EFOHZDK-13" target="gP1NRVliO_AB3EFOHZDK-16" edge="1">
                    <mxGeometry relative="1" as="geometry"/>
                </mxCell>
                <mxCell id="gP1NRVliO_AB3EFOHZDK-18" value="No" style="edgeLabel;html=1;align=center;verticalAlign=middle;resizable=0;points=[];fontSize=13;fontColor=#000000;" parent="gP1NRVliO_AB3EFOHZDK-17" vertex="1" connectable="0">
                    <mxGeometry x="-0.3" y="2" relative="1" as="geometry">
                        <mxPoint as="offset"/>
                    </mxGeometry>
                </mxCell>
                <mxCell id="gP1NRVliO_AB3EFOHZDK-191" style="edgeStyle=orthogonalEdgeStyle;rounded=0;orthogonalLoop=1;jettySize=auto;html=1;exitX=0.5;exitY=0;exitDx=0;exitDy=0;entryX=0.5;entryY=0;entryDx=0;entryDy=0;fontSize=13;" parent="1" source="gP1NRVliO_AB3EFOHZDK-13" target="gP1NRVliO_AB3EFOHZDK-22" edge="1">
                    <mxGeometry relative="1" as="geometry"/>
                </mxCell>
                <mxCell id="gP1NRVliO_AB3EFOHZDK-192" value="Yes" style="edgeLabel;html=1;align=center;verticalAlign=middle;resizable=0;points=[];fontSize=13;" parent="gP1NRVliO_AB3EFOHZDK-191" vertex="1" connectable="0">
                    <mxGeometry x="-0.213" relative="1" as="geometry">
                        <mxPoint x="-131" as="offset"/>
                    </mxGeometry>
                </mxCell>
                <mxCell id="gP1NRVliO_AB3EFOHZDK-13" value="&lt;font style=&quot;color: rgb(0, 0, 0); line-height: 100%;&quot;&gt;&quot;/etc/&amp;nbsp;&lt;/font&gt;&lt;div style=&quot;line-height: 100%;&quot;&gt;&lt;span style=&quot;background-color: transparent;&quot;&gt;&lt;font style=&quot;color: rgb(0, 0, 0);&quot;&gt;pf.conf&quot;&lt;/font&gt;&lt;/span&gt;&lt;div&gt;&lt;div&gt;&lt;font style=&quot;color: rgb(0, 0, 0);&quot;&gt;already&amp;nbsp;&lt;/font&gt;&lt;/div&gt;&lt;div&gt;&lt;span style=&quot;background-color: transparent;&quot;&gt;&lt;font style=&quot;color: rgb(0, 0, 0);&quot;&gt;backed&amp;nbsp;&lt;/font&gt;&lt;/span&gt;&lt;/div&gt;&lt;div&gt;&lt;span style=&quot;background-color: transparent;&quot;&gt;&lt;font style=&quot;color: rgb(0, 0, 0);&quot;&gt;up?&lt;/font&gt;&lt;/span&gt;&lt;/div&gt;&lt;/div&gt;&lt;/div&gt;" style="rhombus;whiteSpace=wrap;html=1;fontSize=13;fontColor=#000000;align=center;" parent="1" vertex="1">
                    <mxGeometry x="520" y="40" width="100" height="100" as="geometry"/>
                </mxCell>
                <mxCell id="gP1NRVliO_AB3EFOHZDK-190" style="edgeStyle=orthogonalEdgeStyle;rounded=0;orthogonalLoop=1;jettySize=auto;html=1;exitX=1;exitY=0.5;exitDx=0;exitDy=0;entryX=0;entryY=0.5;entryDx=0;entryDy=0;fontSize=13;fontColor=#000000;" parent="1" source="gP1NRVliO_AB3EFOHZDK-16" target="gP1NRVliO_AB3EFOHZDK-22" edge="1">
                    <mxGeometry relative="1" as="geometry"/>
                </mxCell>
                <mxCell id="gP1NRVliO_AB3EFOHZDK-16" value="&lt;font style=&quot;line-height: 100%; font-size: 12px; color: rgb(0, 0, 0);&quot;&gt;Create backup&amp;nbsp;&lt;/font&gt;&lt;div&gt;&lt;span style=&quot;font-size: 12px; background-color: transparent;&quot;&gt;&lt;font style=&quot;color: rgb(0, 0, 0);&quot;&gt;&quot;/etc/pf.cong.backup&quot;&lt;/font&gt;&lt;/span&gt;&lt;/div&gt;" style="rounded=0;whiteSpace=wrap;html=1;fontSize=13;fontColor=#000000;" parent="1" vertex="1">
                    <mxGeometry x="670" y="60" width="120" height="60" as="geometry"/>
                </mxCell>
                <mxCell id="gP1NRVliO_AB3EFOHZDK-36" style="edgeStyle=orthogonalEdgeStyle;rounded=0;orthogonalLoop=1;jettySize=auto;html=1;exitX=0.5;exitY=1;exitDx=0;exitDy=0;fontSize=13;fontColor=#000000;" parent="1" source="gP1NRVliO_AB3EFOHZDK-27" target="gP1NRVliO_AB3EFOHZDK-35" edge="1">
                    <mxGeometry relative="1" as="geometry"/>
                </mxCell>
                <mxCell id="gP1NRVliO_AB3EFOHZDK-37" value="No" style="edgeLabel;html=1;align=center;verticalAlign=middle;resizable=0;points=[];fontSize=13;fontColor=#000000;" parent="gP1NRVliO_AB3EFOHZDK-36" vertex="1" connectable="0">
                    <mxGeometry x="-0.175" relative="1" as="geometry">
                        <mxPoint as="offset"/>
                    </mxGeometry>
                </mxCell>
                <mxCell id="gP1NRVliO_AB3EFOHZDK-196" style="edgeStyle=orthogonalEdgeStyle;rounded=0;orthogonalLoop=1;jettySize=auto;html=1;exitX=1;exitY=0.5;exitDx=0;exitDy=0;entryX=1;entryY=0.5;entryDx=0;entryDy=0;fontSize=13;fontColor=#000000;" parent="1" source="gP1NRVliO_AB3EFOHZDK-27" target="gP1NRVliO_AB3EFOHZDK-41" edge="1">
                    <mxGeometry relative="1" as="geometry">
                        <mxPoint x="1140" y="380" as="targetPoint"/>
                        <Array as="points">
                            <mxPoint x="1140" y="90"/>
                            <mxPoint x="1140" y="364"/>
                        </Array>
                    </mxGeometry>
                </mxCell>
                <mxCell id="gP1NRVliO_AB3EFOHZDK-197" value="Yes" style="edgeLabel;html=1;align=center;verticalAlign=middle;resizable=0;points=[];fontSize=13;fontColor=#000000;" parent="gP1NRVliO_AB3EFOHZDK-196" vertex="1" connectable="0">
                    <mxGeometry x="-0.2" relative="1" as="geometry">
                        <mxPoint x="-20" y="-94" as="offset"/>
                    </mxGeometry>
                </mxCell>
                <mxCell id="gP1NRVliO_AB3EFOHZDK-27" value="&lt;font style=&quot;color: rgb(0, 0, 0);&quot;&gt;135 (TCP) already&amp;nbsp;&lt;/font&gt;&lt;div&gt;&lt;font style=&quot;color: rgb(0, 0, 0);&quot;&gt;blocked?&lt;/font&gt;&lt;/div&gt;" style="rhombus;whiteSpace=wrap;html=1;fontSize=13;fontColor=#000000;" parent="1" vertex="1">
                    <mxGeometry x="1010" y="40" width="100" height="100" as="geometry"/>
                </mxCell>
                <mxCell id="gP1NRVliO_AB3EFOHZDK-193" style="edgeStyle=orthogonalEdgeStyle;rounded=0;orthogonalLoop=1;jettySize=auto;html=1;exitX=1;exitY=0.5;exitDx=0;exitDy=0;entryX=0;entryY=0.5;entryDx=0;entryDy=0;fontSize=13;fontColor=#000000;" parent="1" source="gP1NRVliO_AB3EFOHZDK-22" target="gP1NRVliO_AB3EFOHZDK-27" edge="1">
                    <mxGeometry relative="1" as="geometry"/>
                </mxCell>
                <mxCell id="gP1NRVliO_AB3EFOHZDK-194" value="Yes" style="edgeLabel;html=1;align=center;verticalAlign=middle;resizable=0;points=[];fontSize=13;fontColor=#000000;" parent="gP1NRVliO_AB3EFOHZDK-193" vertex="1" connectable="0">
                    <mxGeometry x="-0.2" y="-1" relative="1" as="geometry">
                        <mxPoint as="offset"/>
                    </mxGeometry>
                </mxCell>
                <mxCell id="gP1NRVliO_AB3EFOHZDK-200" style="edgeStyle=orthogonalEdgeStyle;rounded=0;orthogonalLoop=1;jettySize=auto;html=1;exitX=0.5;exitY=1;exitDx=0;exitDy=0;entryX=0.5;entryY=0;entryDx=0;entryDy=0;fontSize=13;fontColor=#000000;" parent="1" source="gP1NRVliO_AB3EFOHZDK-22" target="gP1NRVliO_AB3EFOHZDK-41" edge="1">
                    <mxGeometry relative="1" as="geometry">
                        <Array as="points">
                            <mxPoint x="910" y="270"/>
                            <mxPoint x="1060" y="270"/>
                        </Array>
                    </mxGeometry>
                </mxCell>
                <mxCell id="gP1NRVliO_AB3EFOHZDK-201" value="No" style="edgeLabel;html=1;align=center;verticalAlign=middle;resizable=0;points=[];fontSize=13;fontColor=#000000;" parent="gP1NRVliO_AB3EFOHZDK-200" vertex="1" connectable="0">
                    <mxGeometry x="-0.8933" relative="1" as="geometry">
                        <mxPoint as="offset"/>
                    </mxGeometry>
                </mxCell>
                <mxCell id="gP1NRVliO_AB3EFOHZDK-22" value="&lt;font style=&quot;color: rgb(0, 0, 0);&quot;&gt;Block 135&amp;nbsp;&lt;/font&gt;&lt;div&gt;&lt;font style=&quot;color: rgb(0, 0, 0);&quot;&gt;(TCP)?&lt;/font&gt;&lt;/div&gt;" style="rhombus;whiteSpace=wrap;html=1;fontSize=13;fontColor=#000000;" parent="1" vertex="1">
                    <mxGeometry x="860" y="40" width="100" height="100" as="geometry"/>
                </mxCell>
                <mxCell id="gP1NRVliO_AB3EFOHZDK-199" style="edgeStyle=orthogonalEdgeStyle;rounded=0;orthogonalLoop=1;jettySize=auto;html=1;exitX=0.5;exitY=1;exitDx=0;exitDy=0;entryX=0.5;entryY=0;entryDx=0;entryDy=0;fontSize=13;fontColor=#000000;" parent="1" source="gP1NRVliO_AB3EFOHZDK-35" target="gP1NRVliO_AB3EFOHZDK-41" edge="1">
                    <mxGeometry relative="1" as="geometry"/>
                </mxCell>
                <mxCell id="gP1NRVliO_AB3EFOHZDK-35" value="&lt;font style=&quot;color: rgb(0, 0, 0);&quot;&gt;Append the rule to &quot;/etc/pf.conf&quot; and reload pf rules.&lt;/font&gt;" style="rounded=0;whiteSpace=wrap;html=1;fontSize=13;fontColor=#000000;" parent="1" vertex="1">
                    <mxGeometry x="1000" y="190" width="120" height="60" as="geometry"/>
                </mxCell>
                <mxCell id="gP1NRVliO_AB3EFOHZDK-202" style="edgeStyle=orthogonalEdgeStyle;rounded=0;orthogonalLoop=1;jettySize=auto;html=1;exitX=0;exitY=0.5;exitDx=0;exitDy=0;entryX=1;entryY=0.5;entryDx=0;entryDy=0;fontSize=13;fontColor=#000000;" parent="1" source="gP1NRVliO_AB3EFOHZDK-41" target="gP1NRVliO_AB3EFOHZDK-52" edge="1">
                    <mxGeometry relative="1" as="geometry"/>
                </mxCell>
                <mxCell id="gP1NRVliO_AB3EFOHZDK-203" value="Yes" style="edgeLabel;html=1;align=center;verticalAlign=middle;resizable=0;points=[];fontSize=13;fontColor=#000000;" parent="gP1NRVliO_AB3EFOHZDK-202" vertex="1" connectable="0">
                    <mxGeometry x="-0.24" y="-3" relative="1" as="geometry">
                        <mxPoint as="offset"/>
                    </mxGeometry>
                </mxCell>
                <mxCell id="gP1NRVliO_AB3EFOHZDK-234" style="edgeStyle=orthogonalEdgeStyle;rounded=0;orthogonalLoop=1;jettySize=auto;html=1;exitX=0;exitY=0;exitDx=0;exitDy=0;entryX=0.5;entryY=0;entryDx=0;entryDy=0;fontSize=13;fontColor=#000000;" parent="1" source="gP1NRVliO_AB3EFOHZDK-41" target="gP1NRVliO_AB3EFOHZDK-58" edge="1">
                    <mxGeometry relative="1" as="geometry">
                        <Array as="points">
                            <mxPoint x="1035" y="294"/>
                            <mxPoint x="570" y="294"/>
                        </Array>
                    </mxGeometry>
                </mxCell>
                <mxCell id="gP1NRVliO_AB3EFOHZDK-235" value="No" style="edgeLabel;html=1;align=center;verticalAlign=middle;resizable=0;points=[];fontSize=13;fontColor=#000000;" parent="gP1NRVliO_AB3EFOHZDK-234" vertex="1" connectable="0">
                    <mxGeometry x="-0.9245" y="2" relative="1" as="geometry">
                        <mxPoint as="offset"/>
                    </mxGeometry>
                </mxCell>
                <mxCell id="gP1NRVliO_AB3EFOHZDK-41" value="&lt;font style=&quot;color: rgb(0, 0, 0);&quot;&gt;Block 135&amp;nbsp;&lt;/font&gt;&lt;div&gt;&lt;font style=&quot;color: rgb(0, 0, 0);&quot;&gt;(UDP)?&lt;/font&gt;&lt;/div&gt;" style="rhombus;whiteSpace=wrap;html=1;fontSize=13;fontColor=#000000;" parent="1" vertex="1">
                    <mxGeometry x="1010" y="314" width="100" height="100" as="geometry"/>
                </mxCell>
                <mxCell id="gP1NRVliO_AB3EFOHZDK-56" value="" style="edgeStyle=orthogonalEdgeStyle;rounded=0;orthogonalLoop=1;jettySize=auto;html=1;fontSize=13;fontColor=#000000;" parent="1" source="gP1NRVliO_AB3EFOHZDK-52" target="gP1NRVliO_AB3EFOHZDK-55" edge="1">
                    <mxGeometry relative="1" as="geometry"/>
                </mxCell>
                <mxCell id="gP1NRVliO_AB3EFOHZDK-57" value="No" style="edgeLabel;html=1;align=center;verticalAlign=middle;resizable=0;points=[];fontSize=13;fontColor=#000000;" parent="gP1NRVliO_AB3EFOHZDK-56" vertex="1" connectable="0">
                    <mxGeometry x="-0.25" y="1" relative="1" as="geometry">
                        <mxPoint as="offset"/>
                    </mxGeometry>
                </mxCell>
                <mxCell id="gP1NRVliO_AB3EFOHZDK-236" style="edgeStyle=orthogonalEdgeStyle;rounded=0;orthogonalLoop=1;jettySize=auto;html=1;exitX=0.5;exitY=0;exitDx=0;exitDy=0;entryX=0.5;entryY=0;entryDx=0;entryDy=0;fontSize=13;fontColor=#000000;" parent="1" source="gP1NRVliO_AB3EFOHZDK-52" target="gP1NRVliO_AB3EFOHZDK-58" edge="1">
                    <mxGeometry relative="1" as="geometry">
                        <Array as="points">
                            <mxPoint x="910" y="300"/>
                            <mxPoint x="570" y="300"/>
                        </Array>
                    </mxGeometry>
                </mxCell>
                <mxCell id="gP1NRVliO_AB3EFOHZDK-237" value="Yes" style="edgeLabel;html=1;align=center;verticalAlign=middle;resizable=0;points=[];fontSize=13;fontColor=#000000;" parent="gP1NRVliO_AB3EFOHZDK-236" vertex="1" connectable="0">
                    <mxGeometry x="-0.0707" y="2" relative="1" as="geometry">
                        <mxPoint as="offset"/>
                    </mxGeometry>
                </mxCell>
                <mxCell id="gP1NRVliO_AB3EFOHZDK-52" value="&lt;font style=&quot;color: rgb(0, 0, 0);&quot;&gt;135 (UDP)&lt;/font&gt;&lt;div&gt;&lt;font style=&quot;color: rgb(0, 0, 0);&quot;&gt;already&lt;/font&gt;&lt;div&gt;&lt;font style=&quot;color: rgb(0, 0, 0);&quot;&gt;blocked?&lt;/font&gt;&lt;/div&gt;&lt;/div&gt;" style="rhombus;whiteSpace=wrap;html=1;fontSize=13;fontColor=#000000;" parent="1" vertex="1">
                    <mxGeometry x="860" y="314" width="100" height="100" as="geometry"/>
                </mxCell>
                <mxCell id="gP1NRVliO_AB3EFOHZDK-60" style="edgeStyle=orthogonalEdgeStyle;rounded=0;orthogonalLoop=1;jettySize=auto;html=1;exitX=0;exitY=0.5;exitDx=0;exitDy=0;entryX=1;entryY=0.5;entryDx=0;entryDy=0;fontSize=13;fontColor=#000000;" parent="1" source="gP1NRVliO_AB3EFOHZDK-55" target="gP1NRVliO_AB3EFOHZDK-58" edge="1">
                    <mxGeometry relative="1" as="geometry"/>
                </mxCell>
                <mxCell id="gP1NRVliO_AB3EFOHZDK-55" value="Append the rule to &quot;/etc/pf.conf&quot; and reload pf rules." style="rounded=0;whiteSpace=wrap;html=1;fontSize=13;fontColor=#000000;" parent="1" vertex="1">
                    <mxGeometry x="670" y="334" width="120" height="60" as="geometry"/>
                </mxCell>
                <mxCell id="gP1NRVliO_AB3EFOHZDK-209" style="edgeStyle=orthogonalEdgeStyle;rounded=0;orthogonalLoop=1;jettySize=auto;html=1;exitX=0;exitY=0.5;exitDx=0;exitDy=0;entryX=1;entryY=0.5;entryDx=0;entryDy=0;fontSize=13;fontColor=#000000;" parent="1" source="gP1NRVliO_AB3EFOHZDK-58" target="gP1NRVliO_AB3EFOHZDK-65" edge="1">
                    <mxGeometry relative="1" as="geometry"/>
                </mxCell>
                <mxCell id="gP1NRVliO_AB3EFOHZDK-232" value="Yes" style="edgeLabel;html=1;align=center;verticalAlign=middle;resizable=0;points=[];fontSize=13;fontColor=#000000;" parent="gP1NRVliO_AB3EFOHZDK-209" vertex="1" connectable="0">
                    <mxGeometry x="0.1429" y="-1" relative="1" as="geometry">
                        <mxPoint as="offset"/>
                    </mxGeometry>
                </mxCell>
                <mxCell id="gP1NRVliO_AB3EFOHZDK-227" style="edgeStyle=orthogonalEdgeStyle;rounded=0;orthogonalLoop=1;jettySize=auto;html=1;exitX=0.5;exitY=1;exitDx=0;exitDy=0;entryX=1;entryY=0;entryDx=0;entryDy=0;fontSize=13;fontColor=#000000;" parent="1" source="gP1NRVliO_AB3EFOHZDK-58" target="gP1NRVliO_AB3EFOHZDK-72" edge="1">
                    <mxGeometry relative="1" as="geometry"/>
                </mxCell>
                <mxCell id="gP1NRVliO_AB3EFOHZDK-228" value="No" style="edgeLabel;html=1;align=center;verticalAlign=middle;resizable=0;points=[];fontSize=13;fontColor=#000000;" parent="gP1NRVliO_AB3EFOHZDK-227" vertex="1" connectable="0">
                    <mxGeometry x="-0.4809" y="-3" relative="1" as="geometry">
                        <mxPoint x="52" as="offset"/>
                    </mxGeometry>
                </mxCell>
                <mxCell id="gP1NRVliO_AB3EFOHZDK-58" value="&lt;div&gt;&lt;font style=&quot;color: rgb(0, 0, 0);&quot;&gt;Block&amp;nbsp;&lt;/font&gt;&lt;/div&gt;&lt;div&gt;&lt;font style=&quot;color: rgb(0, 0, 0);&quot;&gt;137-139&amp;nbsp;&lt;/font&gt;&lt;div&gt;&lt;font style=&quot;color: rgb(0, 0, 0);&quot;&gt;(TCP)?&lt;/font&gt;&lt;/div&gt;&lt;/div&gt;" style="rhombus;whiteSpace=wrap;html=1;fontSize=13;fontColor=#000000;" parent="1" vertex="1">
                    <mxGeometry x="520" y="314" width="100" height="100" as="geometry"/>
                </mxCell>
                <mxCell id="gP1NRVliO_AB3EFOHZDK-221" style="edgeStyle=orthogonalEdgeStyle;rounded=0;orthogonalLoop=1;jettySize=auto;html=1;exitX=0;exitY=0.5;exitDx=0;exitDy=0;entryX=1;entryY=0.5;entryDx=0;entryDy=0;fontSize=13;fontColor=#000000;" parent="1" source="gP1NRVliO_AB3EFOHZDK-65" target="gP1NRVliO_AB3EFOHZDK-69" edge="1">
                    <mxGeometry relative="1" as="geometry"/>
                </mxCell>
                <mxCell id="gP1NRVliO_AB3EFOHZDK-231" value="No" style="edgeLabel;html=1;align=center;verticalAlign=middle;resizable=0;points=[];fontSize=13;fontColor=#000000;" parent="gP1NRVliO_AB3EFOHZDK-221" vertex="1" connectable="0">
                    <mxGeometry x="-0.05" y="2" relative="1" as="geometry">
                        <mxPoint as="offset"/>
                    </mxGeometry>
                </mxCell>
                <mxCell id="gP1NRVliO_AB3EFOHZDK-229" style="edgeStyle=orthogonalEdgeStyle;rounded=0;orthogonalLoop=1;jettySize=auto;html=1;exitX=0.5;exitY=1;exitDx=0;exitDy=0;entryX=1;entryY=0;entryDx=0;entryDy=0;fontSize=13;fontColor=#000000;" parent="1" source="gP1NRVliO_AB3EFOHZDK-65" target="gP1NRVliO_AB3EFOHZDK-72" edge="1">
                    <mxGeometry relative="1" as="geometry"/>
                </mxCell>
                <mxCell id="gP1NRVliO_AB3EFOHZDK-230" value="Yes" style="edgeLabel;html=1;align=center;verticalAlign=middle;resizable=0;points=[];fontSize=13;fontColor=#000000;" parent="gP1NRVliO_AB3EFOHZDK-229" vertex="1" connectable="0">
                    <mxGeometry x="-0.898" y="2" relative="1" as="geometry">
                        <mxPoint as="offset"/>
                    </mxGeometry>
                </mxCell>
                <mxCell id="gP1NRVliO_AB3EFOHZDK-65" value="&lt;font style=&quot;color: rgb(0, 0, 0);&quot;&gt;137-139&amp;nbsp;&lt;/font&gt;&lt;div&gt;&lt;span style=&quot;background-color: transparent;&quot;&gt;&lt;font style=&quot;color: rgb(0, 0, 0);&quot;&gt;(TCP) already&lt;/font&gt;&lt;/span&gt;&lt;div&gt;&lt;font style=&quot;color: rgb(0, 0, 0);&quot;&gt;blocked?&lt;/font&gt;&lt;/div&gt;&lt;/div&gt;" style="rhombus;whiteSpace=wrap;html=1;fontSize=13;fontColor=#000000;" parent="1" vertex="1">
                    <mxGeometry x="370" y="314" width="100" height="100" as="geometry"/>
                </mxCell>
                <mxCell id="gP1NRVliO_AB3EFOHZDK-224" style="edgeStyle=orthogonalEdgeStyle;rounded=0;orthogonalLoop=1;jettySize=auto;html=1;exitX=0.5;exitY=1;exitDx=0;exitDy=0;entryX=0.5;entryY=0;entryDx=0;entryDy=0;fontSize=13;fontColor=#000000;" parent="1" source="gP1NRVliO_AB3EFOHZDK-69" target="gP1NRVliO_AB3EFOHZDK-72" edge="1">
                    <mxGeometry relative="1" as="geometry"/>
                </mxCell>
                <mxCell id="gP1NRVliO_AB3EFOHZDK-69" value="Append the rule to &quot;/etc/pf.conf&quot; and reload pf rules." style="rounded=0;whiteSpace=wrap;html=1;fontSize=13;fontColor=#000000;" parent="1" vertex="1">
                    <mxGeometry x="200" y="334" width="120" height="60" as="geometry"/>
                </mxCell>
                <mxCell id="gP1NRVliO_AB3EFOHZDK-225" style="edgeStyle=orthogonalEdgeStyle;rounded=0;orthogonalLoop=1;jettySize=auto;html=1;exitX=1;exitY=0.5;exitDx=0;exitDy=0;entryX=0;entryY=0.5;entryDx=0;entryDy=0;fontSize=13;fontColor=#000000;" parent="1" source="gP1NRVliO_AB3EFOHZDK-72" target="gP1NRVliO_AB3EFOHZDK-82" edge="1">
                    <mxGeometry relative="1" as="geometry"/>
                </mxCell>
                <mxCell id="gP1NRVliO_AB3EFOHZDK-226" value="Yes" style="edgeLabel;html=1;align=center;verticalAlign=middle;resizable=0;points=[];fontSize=13;fontColor=#000000;" parent="gP1NRVliO_AB3EFOHZDK-225" vertex="1" connectable="0">
                    <mxGeometry x="-0.32" y="-1" relative="1" as="geometry">
                        <mxPoint as="offset"/>
                    </mxGeometry>
                </mxCell>
                <mxCell id="gP1NRVliO_AB3EFOHZDK-238" style="edgeStyle=orthogonalEdgeStyle;rounded=0;orthogonalLoop=1;jettySize=auto;html=1;entryX=0.5;entryY=1;entryDx=0;entryDy=0;fontSize=13;fontColor=#000000;" parent="1" source="gP1NRVliO_AB3EFOHZDK-72" target="gP1NRVliO_AB3EFOHZDK-91" edge="1">
                    <mxGeometry relative="1" as="geometry">
                        <Array as="points">
                            <mxPoint x="260" y="580"/>
                            <mxPoint x="730" y="580"/>
                        </Array>
                    </mxGeometry>
                </mxCell>
                <mxCell id="gP1NRVliO_AB3EFOHZDK-239" value="No" style="edgeLabel;html=1;align=center;verticalAlign=middle;resizable=0;points=[];fontSize=13;fontColor=#000000;" parent="gP1NRVliO_AB3EFOHZDK-238" vertex="1" connectable="0">
                    <mxGeometry x="-0.0157" y="-1" relative="1" as="geometry">
                        <mxPoint x="-231" y="-11" as="offset"/>
                    </mxGeometry>
                </mxCell>
                <mxCell id="gP1NRVliO_AB3EFOHZDK-72" value="&lt;font style=&quot;color: rgb(0, 0, 0);&quot;&gt;Block&amp;nbsp;&lt;/font&gt;&lt;div&gt;&lt;font style=&quot;color: rgb(0, 0, 0);&quot;&gt;137-139&amp;nbsp;&lt;/font&gt;&lt;div&gt;&lt;font style=&quot;color: rgb(0, 0, 0);&quot;&gt;(UDP)?&lt;/font&gt;&lt;/div&gt;&lt;/div&gt;" style="rhombus;whiteSpace=wrap;html=1;fontSize=13;fontColor=#000000;" parent="1" vertex="1">
                    <mxGeometry x="210" y="460" width="100" height="100" as="geometry"/>
                </mxCell>
                <mxCell id="gP1NRVliO_AB3EFOHZDK-89" style="edgeStyle=orthogonalEdgeStyle;rounded=0;orthogonalLoop=1;jettySize=auto;html=1;exitX=1;exitY=0.5;exitDx=0;exitDy=0;fontSize=13;fontColor=#000000;" parent="1" source="gP1NRVliO_AB3EFOHZDK-82" target="gP1NRVliO_AB3EFOHZDK-88" edge="1">
                    <mxGeometry relative="1" as="geometry"/>
                </mxCell>
                <mxCell id="gP1NRVliO_AB3EFOHZDK-90" value="No" style="edgeLabel;html=1;align=center;verticalAlign=middle;resizable=0;points=[];fontSize=13;fontColor=#000000;" parent="gP1NRVliO_AB3EFOHZDK-89" vertex="1" connectable="0">
                    <mxGeometry x="-0.28" y="-2" relative="1" as="geometry">
                        <mxPoint as="offset"/>
                    </mxGeometry>
                </mxCell>
                <mxCell id="gP1NRVliO_AB3EFOHZDK-240" style="edgeStyle=orthogonalEdgeStyle;rounded=0;orthogonalLoop=1;jettySize=auto;html=1;exitX=0.5;exitY=1;exitDx=0;exitDy=0;entryX=0.5;entryY=1;entryDx=0;entryDy=0;fontSize=13;fontColor=#000000;" parent="1" source="gP1NRVliO_AB3EFOHZDK-82" target="gP1NRVliO_AB3EFOHZDK-91" edge="1">
                    <mxGeometry relative="1" as="geometry"/>
                </mxCell>
                <mxCell id="gP1NRVliO_AB3EFOHZDK-241" value="Yes" style="edgeLabel;html=1;align=center;verticalAlign=middle;resizable=0;points=[];fontSize=13;fontColor=#000000;" parent="gP1NRVliO_AB3EFOHZDK-240" vertex="1" connectable="0">
                    <mxGeometry x="-0.9543" y="1" relative="1" as="geometry">
                        <mxPoint as="offset"/>
                    </mxGeometry>
                </mxCell>
                <mxCell id="gP1NRVliO_AB3EFOHZDK-82" value="&lt;font style=&quot;color: rgb(0, 0, 0);&quot;&gt;137-139&amp;nbsp;&lt;/font&gt;&lt;div&gt;&lt;span style=&quot;background-color: transparent;&quot;&gt;&lt;font style=&quot;color: rgb(0, 0, 0);&quot;&gt;(UDP) already&lt;/font&gt;&lt;/span&gt;&lt;div&gt;&lt;font style=&quot;color: rgb(0, 0, 0);&quot;&gt;blocked?&lt;/font&gt;&lt;/div&gt;&lt;/div&gt;" style="rhombus;whiteSpace=wrap;html=1;fontSize=13;fontColor=#000000;" parent="1" vertex="1">
                    <mxGeometry x="370" y="460" width="100" height="100" as="geometry"/>
                </mxCell>
                <mxCell id="gP1NRVliO_AB3EFOHZDK-233" style="edgeStyle=orthogonalEdgeStyle;rounded=0;orthogonalLoop=1;jettySize=auto;html=1;exitX=1;exitY=0.5;exitDx=0;exitDy=0;entryX=0;entryY=0.5;entryDx=0;entryDy=0;fontSize=13;fontColor=#000000;" parent="1" source="gP1NRVliO_AB3EFOHZDK-88" target="gP1NRVliO_AB3EFOHZDK-91" edge="1">
                    <mxGeometry relative="1" as="geometry">
                        <mxPoint x="630" y="510" as="targetPoint"/>
                    </mxGeometry>
                </mxCell>
                <mxCell id="gP1NRVliO_AB3EFOHZDK-88" value="Append the rule to &quot;/etc/pf.conf&quot; and reload pf rules." style="rounded=0;whiteSpace=wrap;html=1;fontSize=13;fontColor=#000000;" parent="1" vertex="1">
                    <mxGeometry x="510" y="480" width="120" height="60" as="geometry"/>
                </mxCell>
                <mxCell id="gP1NRVliO_AB3EFOHZDK-242" style="edgeStyle=orthogonalEdgeStyle;rounded=0;orthogonalLoop=1;jettySize=auto;html=1;exitX=1;exitY=0.5;exitDx=0;exitDy=0;entryX=0;entryY=0.5;entryDx=0;entryDy=0;fontSize=13;fontColor=#000000;" parent="1" source="gP1NRVliO_AB3EFOHZDK-91" target="gP1NRVliO_AB3EFOHZDK-95" edge="1">
                    <mxGeometry relative="1" as="geometry"/>
                </mxCell>
                <mxCell id="gP1NRVliO_AB3EFOHZDK-250" value="Yes" style="edgeLabel;html=1;align=center;verticalAlign=middle;resizable=0;points=[];fontSize=13;fontColor=#000000;" parent="gP1NRVliO_AB3EFOHZDK-242" vertex="1" connectable="0">
                    <mxGeometry x="-0.25" relative="1" as="geometry">
                        <mxPoint as="offset"/>
                    </mxGeometry>
                </mxCell>
                <mxCell id="gP1NRVliO_AB3EFOHZDK-245" style="edgeStyle=orthogonalEdgeStyle;rounded=0;orthogonalLoop=1;jettySize=auto;html=1;exitX=0.5;exitY=0;exitDx=0;exitDy=0;entryX=1;entryY=0.5;entryDx=0;entryDy=0;fontSize=13;fontColor=#000000;" parent="1" source="gP1NRVliO_AB3EFOHZDK-91" target="gP1NRVliO_AB3EFOHZDK-108" edge="1">
                    <mxGeometry relative="1" as="geometry">
                        <Array as="points">
                            <mxPoint x="730" y="440"/>
                            <mxPoint x="1160" y="440"/>
                            <mxPoint x="1160" y="640"/>
                        </Array>
                    </mxGeometry>
                </mxCell>
                <mxCell id="gP1NRVliO_AB3EFOHZDK-246" value="No" style="edgeLabel;html=1;align=center;verticalAlign=middle;resizable=0;points=[];fontSize=13;fontColor=#000000;" parent="gP1NRVliO_AB3EFOHZDK-245" vertex="1" connectable="0">
                    <mxGeometry x="-0.4853" relative="1" as="geometry">
                        <mxPoint x="-155" y="10" as="offset"/>
                    </mxGeometry>
                </mxCell>
                <mxCell id="gP1NRVliO_AB3EFOHZDK-91" value="&lt;font style=&quot;color: rgb(0, 0, 0);&quot;&gt;Block 445&amp;nbsp;&lt;/font&gt;&lt;div&gt;&lt;font style=&quot;color: rgb(0, 0, 0);&quot;&gt;(TCP)?&lt;/font&gt;&lt;/div&gt;" style="rhombus;whiteSpace=wrap;html=1;fontSize=13;fontColor=#000000;" parent="1" vertex="1">
                    <mxGeometry x="680" y="460" width="100" height="100" as="geometry"/>
                </mxCell>
                <mxCell id="gP1NRVliO_AB3EFOHZDK-243" style="edgeStyle=orthogonalEdgeStyle;rounded=0;orthogonalLoop=1;jettySize=auto;html=1;exitX=1;exitY=0.5;exitDx=0;exitDy=0;entryX=0;entryY=0.5;entryDx=0;entryDy=0;fontSize=13;fontColor=#000000;" parent="1" source="gP1NRVliO_AB3EFOHZDK-95" target="gP1NRVliO_AB3EFOHZDK-105" edge="1">
                    <mxGeometry relative="1" as="geometry"/>
                </mxCell>
                <mxCell id="gP1NRVliO_AB3EFOHZDK-249" value="No" style="edgeLabel;html=1;align=center;verticalAlign=middle;resizable=0;points=[];fontSize=13;fontColor=#000000;" parent="gP1NRVliO_AB3EFOHZDK-243" vertex="1" connectable="0">
                    <mxGeometry x="-0.2333" y="2" relative="1" as="geometry">
                        <mxPoint as="offset"/>
                    </mxGeometry>
                </mxCell>
                <mxCell id="gP1NRVliO_AB3EFOHZDK-247" style="edgeStyle=orthogonalEdgeStyle;rounded=0;orthogonalLoop=1;jettySize=auto;html=1;exitX=0.5;exitY=0;exitDx=0;exitDy=0;entryX=1;entryY=0.5;entryDx=0;entryDy=0;fontSize=13;fontColor=#000000;" parent="1" source="gP1NRVliO_AB3EFOHZDK-95" target="gP1NRVliO_AB3EFOHZDK-108" edge="1">
                    <mxGeometry relative="1" as="geometry">
                        <Array as="points">
                            <mxPoint x="910" y="450"/>
                            <mxPoint x="1150" y="450"/>
                            <mxPoint x="1150" y="640"/>
                        </Array>
                    </mxGeometry>
                </mxCell>
                <mxCell id="gP1NRVliO_AB3EFOHZDK-248" value="Yes" style="edgeLabel;html=1;align=center;verticalAlign=middle;resizable=0;points=[];fontSize=13;fontColor=#000000;" parent="gP1NRVliO_AB3EFOHZDK-247" vertex="1" connectable="0">
                    <mxGeometry x="-0.8478" y="-1" relative="1" as="geometry">
                        <mxPoint as="offset"/>
                    </mxGeometry>
                </mxCell>
                <mxCell id="gP1NRVliO_AB3EFOHZDK-95" value="&lt;font style=&quot;color: rgb(0, 0, 0);&quot;&gt;445&amp;nbsp;&lt;/font&gt;&lt;div&gt;&lt;span style=&quot;background-color: transparent;&quot;&gt;&lt;font style=&quot;color: rgb(0, 0, 0);&quot;&gt;(TCP) already&lt;/font&gt;&lt;/span&gt;&lt;div&gt;&lt;font style=&quot;color: rgb(0, 0, 0);&quot;&gt;blocked?&lt;/font&gt;&lt;/div&gt;&lt;/div&gt;" style="rhombus;whiteSpace=wrap;html=1;fontSize=13;fontColor=#000000;" parent="1" vertex="1">
                    <mxGeometry x="860" y="460" width="100" height="100" as="geometry"/>
                </mxCell>
                <mxCell id="gP1NRVliO_AB3EFOHZDK-244" style="edgeStyle=orthogonalEdgeStyle;rounded=0;orthogonalLoop=1;jettySize=auto;html=1;exitX=0.5;exitY=1;exitDx=0;exitDy=0;entryX=0.5;entryY=0;entryDx=0;entryDy=0;fontSize=13;fontColor=#000000;" parent="1" source="gP1NRVliO_AB3EFOHZDK-105" target="gP1NRVliO_AB3EFOHZDK-108" edge="1">
                    <mxGeometry relative="1" as="geometry"/>
                </mxCell>
                <mxCell id="gP1NRVliO_AB3EFOHZDK-105" value="Append the rule to &quot;/etc/pf.conf&quot; and reload pf rules." style="rounded=0;whiteSpace=wrap;html=1;fontSize=13;fontColor=#000000;" parent="1" vertex="1">
                    <mxGeometry x="1020" y="480" width="120" height="60" as="geometry"/>
                </mxCell>
                <mxCell id="gP1NRVliO_AB3EFOHZDK-251" style="edgeStyle=orthogonalEdgeStyle;rounded=0;orthogonalLoop=1;jettySize=auto;html=1;exitX=0;exitY=0.5;exitDx=0;exitDy=0;entryX=1;entryY=0.5;entryDx=0;entryDy=0;fontSize=13;fontColor=#000000;" parent="1" source="gP1NRVliO_AB3EFOHZDK-108" target="gP1NRVliO_AB3EFOHZDK-114" edge="1">
                    <mxGeometry relative="1" as="geometry"/>
                </mxCell>
                <mxCell id="gP1NRVliO_AB3EFOHZDK-252" value="Yes" style="edgeLabel;html=1;align=center;verticalAlign=middle;resizable=0;points=[];fontSize=13;fontColor=#000000;" parent="gP1NRVliO_AB3EFOHZDK-251" vertex="1" connectable="0">
                    <mxGeometry x="-0.1429" y="-1" relative="1" as="geometry">
                        <mxPoint as="offset"/>
                    </mxGeometry>
                </mxCell>
                <mxCell id="gP1NRVliO_AB3EFOHZDK-108" value="&lt;font style=&quot;color: rgb(0, 0, 0);&quot;&gt;Block&amp;nbsp;&lt;/font&gt;&lt;div&gt;&lt;font style=&quot;color: rgb(0, 0, 0);&quot;&gt;1433-1434&amp;nbsp;&lt;/font&gt;&lt;div&gt;&lt;font style=&quot;color: rgb(0, 0, 0);&quot;&gt;(TCP)?&lt;/font&gt;&lt;/div&gt;&lt;/div&gt;" style="rhombus;whiteSpace=wrap;html=1;fontSize=13;fontColor=#000000;" parent="1" vertex="1">
                    <mxGeometry x="1030" y="590" width="100" height="100" as="geometry"/>
                </mxCell>
                <mxCell id="gP1NRVliO_AB3EFOHZDK-253" style="edgeStyle=orthogonalEdgeStyle;rounded=0;orthogonalLoop=1;jettySize=auto;html=1;exitX=0;exitY=0.5;exitDx=0;exitDy=0;entryX=1;entryY=0.5;entryDx=0;entryDy=0;fontSize=13;fontColor=#000000;" parent="1" source="gP1NRVliO_AB3EFOHZDK-114" target="gP1NRVliO_AB3EFOHZDK-117" edge="1">
                    <mxGeometry relative="1" as="geometry"/>
                </mxCell>
                <mxCell id="gP1NRVliO_AB3EFOHZDK-254" value="No" style="edgeLabel;html=1;align=center;verticalAlign=middle;resizable=0;points=[];fontSize=13;fontColor=#000000;" parent="gP1NRVliO_AB3EFOHZDK-253" vertex="1" connectable="0">
                    <mxGeometry x="-0.1" y="-1" relative="1" as="geometry">
                        <mxPoint as="offset"/>
                    </mxGeometry>
                </mxCell>
                <mxCell id="gP1NRVliO_AB3EFOHZDK-114" value="&lt;div&gt;&lt;font style=&quot;color: rgb(0, 0, 0);&quot;&gt;1433-1434&amp;nbsp;&lt;/font&gt;&lt;div&gt;&lt;font style=&quot;color: rgb(0, 0, 0);&quot;&gt;(TCP) already blocked?&lt;/font&gt;&lt;/div&gt;&lt;/div&gt;" style="rhombus;whiteSpace=wrap;html=1;fontSize=13;fontColor=#000000;" parent="1" vertex="1">
                    <mxGeometry x="860" y="590" width="100" height="100" as="geometry"/>
                </mxCell>
                <mxCell id="gP1NRVliO_AB3EFOHZDK-256" style="edgeStyle=orthogonalEdgeStyle;rounded=0;orthogonalLoop=1;jettySize=auto;html=1;exitX=0;exitY=0.5;exitDx=0;exitDy=0;entryX=1;entryY=0.5;entryDx=0;entryDy=0;fontSize=13;fontColor=#000000;" parent="1" source="gP1NRVliO_AB3EFOHZDK-117" target="gP1NRVliO_AB3EFOHZDK-120" edge="1">
                    <mxGeometry relative="1" as="geometry"/>
                </mxCell>
                <mxCell id="gP1NRVliO_AB3EFOHZDK-117" value="Append the rule to &quot;/etc/pf.conf&quot; and reload pf rules." style="rounded=0;whiteSpace=wrap;html=1;fontSize=13;fontColor=#000000;" parent="1" vertex="1">
                    <mxGeometry x="680" y="610" width="120" height="60" as="geometry"/>
                </mxCell>
                <mxCell id="gP1NRVliO_AB3EFOHZDK-257" style="edgeStyle=orthogonalEdgeStyle;rounded=0;orthogonalLoop=1;jettySize=auto;html=1;exitX=0;exitY=0.5;exitDx=0;exitDy=0;entryX=1;entryY=0.5;entryDx=0;entryDy=0;fontSize=13;fontColor=#000000;" parent="1" source="gP1NRVliO_AB3EFOHZDK-120" target="gP1NRVliO_AB3EFOHZDK-126" edge="1">
                    <mxGeometry relative="1" as="geometry"/>
                </mxCell>
                <mxCell id="gP1NRVliO_AB3EFOHZDK-258" value="Yes" style="edgeLabel;html=1;align=center;verticalAlign=middle;resizable=0;points=[];fontSize=13;fontColor=#000000;" parent="gP1NRVliO_AB3EFOHZDK-257" vertex="1" connectable="0">
                    <mxGeometry x="-0.25" relative="1" as="geometry">
                        <mxPoint as="offset"/>
                    </mxGeometry>
                </mxCell>
                <mxCell id="gP1NRVliO_AB3EFOHZDK-262" style="edgeStyle=orthogonalEdgeStyle;rounded=0;orthogonalLoop=1;jettySize=auto;html=1;exitX=0.5;exitY=1;exitDx=0;exitDy=0;entryX=1;entryY=0;entryDx=0;entryDy=0;fontSize=13;fontColor=#000000;" parent="1" source="gP1NRVliO_AB3EFOHZDK-120" target="gP1NRVliO_AB3EFOHZDK-132" edge="1">
                    <mxGeometry relative="1" as="geometry">
                        <Array as="points">
                            <mxPoint x="560" y="710"/>
                            <mxPoint x="285" y="710"/>
                        </Array>
                    </mxGeometry>
                </mxCell>
                <mxCell id="gP1NRVliO_AB3EFOHZDK-265" value="No" style="edgeLabel;html=1;align=center;verticalAlign=middle;resizable=0;points=[];fontSize=13;fontColor=#000000;" parent="gP1NRVliO_AB3EFOHZDK-262" vertex="1" connectable="0">
                    <mxGeometry x="-0.8" y="1" relative="1" as="geometry">
                        <mxPoint y="-11" as="offset"/>
                    </mxGeometry>
                </mxCell>
                <mxCell id="gP1NRVliO_AB3EFOHZDK-120" value="&lt;font style=&quot;color: rgb(0, 0, 0);&quot;&gt;Block&amp;nbsp;&lt;/font&gt;&lt;div&gt;&lt;font style=&quot;color: rgb(0, 0, 0);&quot;&gt;1433-1434&amp;nbsp;&lt;/font&gt;&lt;div&gt;&lt;font style=&quot;color: rgb(0, 0, 0);&quot;&gt;(UDP)?&lt;/font&gt;&lt;/div&gt;&lt;/div&gt;" style="rhombus;whiteSpace=wrap;html=1;fontSize=13;fontColor=#000000;" parent="1" vertex="1">
                    <mxGeometry x="510" y="590" width="100" height="100" as="geometry"/>
                </mxCell>
                <mxCell id="gP1NRVliO_AB3EFOHZDK-259" style="edgeStyle=orthogonalEdgeStyle;rounded=0;orthogonalLoop=1;jettySize=auto;html=1;exitX=0;exitY=0.5;exitDx=0;exitDy=0;entryX=1;entryY=0.5;entryDx=0;entryDy=0;fontSize=13;fontColor=#000000;" parent="1" source="gP1NRVliO_AB3EFOHZDK-126" target="gP1NRVliO_AB3EFOHZDK-129" edge="1">
                    <mxGeometry relative="1" as="geometry"/>
                </mxCell>
                <mxCell id="gP1NRVliO_AB3EFOHZDK-260" value="No" style="edgeLabel;html=1;align=center;verticalAlign=middle;resizable=0;points=[];fontSize=13;fontColor=#000000;" parent="gP1NRVliO_AB3EFOHZDK-259" vertex="1" connectable="0">
                    <mxGeometry x="-0.35" y="2" relative="1" as="geometry">
                        <mxPoint as="offset"/>
                    </mxGeometry>
                </mxCell>
                <mxCell id="gP1NRVliO_AB3EFOHZDK-264" style="edgeStyle=orthogonalEdgeStyle;rounded=0;orthogonalLoop=1;jettySize=auto;html=1;exitX=0.5;exitY=1;exitDx=0;exitDy=0;entryX=1;entryY=0;entryDx=0;entryDy=0;fontSize=13;fontColor=#000000;" parent="1" source="gP1NRVliO_AB3EFOHZDK-126" target="gP1NRVliO_AB3EFOHZDK-132" edge="1">
                    <mxGeometry relative="1" as="geometry">
                        <Array as="points">
                            <mxPoint x="420" y="700"/>
                            <mxPoint x="285" y="700"/>
                        </Array>
                    </mxGeometry>
                </mxCell>
                <mxCell id="gP1NRVliO_AB3EFOHZDK-266" value="Yes" style="edgeLabel;html=1;align=center;verticalAlign=middle;resizable=0;points=[];fontSize=13;fontColor=#000000;" parent="gP1NRVliO_AB3EFOHZDK-264" vertex="1" connectable="0">
                    <mxGeometry x="-0.5895" y="-3" relative="1" as="geometry">
                        <mxPoint x="9" y="-7" as="offset"/>
                    </mxGeometry>
                </mxCell>
                <mxCell id="gP1NRVliO_AB3EFOHZDK-126" value="&lt;div&gt;&lt;font style=&quot;color: rgb(0, 0, 0);&quot;&gt;1433-1434&amp;nbsp;&lt;/font&gt;&lt;div&gt;&lt;font style=&quot;color: rgb(0, 0, 0);&quot;&gt;(UDP) already blocked?&lt;/font&gt;&lt;/div&gt;&lt;/div&gt;" style="rhombus;whiteSpace=wrap;html=1;fontSize=13;fontColor=#000000;" parent="1" vertex="1">
                    <mxGeometry x="370" y="590" width="100" height="100" as="geometry"/>
                </mxCell>
                <mxCell id="gP1NRVliO_AB3EFOHZDK-261" style="edgeStyle=orthogonalEdgeStyle;rounded=0;orthogonalLoop=1;jettySize=auto;html=1;exitX=0.5;exitY=1;exitDx=0;exitDy=0;entryX=0.5;entryY=0;entryDx=0;entryDy=0;fontSize=13;fontColor=#000000;" parent="1" source="gP1NRVliO_AB3EFOHZDK-129" target="gP1NRVliO_AB3EFOHZDK-132" edge="1">
                    <mxGeometry relative="1" as="geometry"/>
                </mxCell>
                <mxCell id="gP1NRVliO_AB3EFOHZDK-129" value="Append the rule to &quot;/etc/pf.conf&quot; and reload pf rules." style="rounded=0;whiteSpace=wrap;html=1;fontSize=13;fontColor=#000000;" parent="1" vertex="1">
                    <mxGeometry x="200" y="610" width="120" height="60" as="geometry"/>
                </mxCell>
                <mxCell id="gP1NRVliO_AB3EFOHZDK-267" style="edgeStyle=orthogonalEdgeStyle;rounded=0;orthogonalLoop=1;jettySize=auto;html=1;exitX=1;exitY=0.5;exitDx=0;exitDy=0;entryX=0;entryY=0.5;entryDx=0;entryDy=0;fontSize=13;fontColor=#000000;" parent="1" source="gP1NRVliO_AB3EFOHZDK-132" target="gP1NRVliO_AB3EFOHZDK-138" edge="1">
                    <mxGeometry relative="1" as="geometry"/>
                </mxCell>
                <mxCell id="gP1NRVliO_AB3EFOHZDK-268" value="Yes" style="edgeLabel;html=1;align=center;verticalAlign=middle;resizable=0;points=[];fontSize=13;fontColor=#000000;" parent="gP1NRVliO_AB3EFOHZDK-267" vertex="1" connectable="0">
                    <mxGeometry x="0.1667" y="-1" relative="1" as="geometry">
                        <mxPoint as="offset"/>
                    </mxGeometry>
                </mxCell>
                <mxCell id="gP1NRVliO_AB3EFOHZDK-277" style="edgeStyle=orthogonalEdgeStyle;rounded=0;orthogonalLoop=1;jettySize=auto;html=1;exitX=0.5;exitY=1;exitDx=0;exitDy=0;entryX=0.5;entryY=1;entryDx=0;entryDy=0;fontSize=13;fontColor=#000000;" parent="1" source="gP1NRVliO_AB3EFOHZDK-132" target="gP1NRVliO_AB3EFOHZDK-146" edge="1">
                    <mxGeometry relative="1" as="geometry"/>
                </mxCell>
                <mxCell id="gP1NRVliO_AB3EFOHZDK-279" value="No" style="edgeLabel;html=1;align=center;verticalAlign=middle;resizable=0;points=[];fontSize=13;fontColor=#000000;" parent="gP1NRVliO_AB3EFOHZDK-277" vertex="1" connectable="0">
                    <mxGeometry x="-0.8577" y="2" relative="1" as="geometry">
                        <mxPoint as="offset"/>
                    </mxGeometry>
                </mxCell>
                <mxCell id="gP1NRVliO_AB3EFOHZDK-132" value="&lt;font style=&quot;color: rgb(0, 0, 0);&quot;&gt;Block&amp;nbsp;&lt;/font&gt;&lt;div&gt;&lt;font style=&quot;color: rgb(0, 0, 0);&quot;&gt;1900&amp;nbsp;&lt;/font&gt;&lt;div&gt;&lt;font style=&quot;color: rgb(0, 0, 0);&quot;&gt;(UDP)?&lt;/font&gt;&lt;/div&gt;&lt;/div&gt;" style="rhombus;whiteSpace=wrap;html=1;fontSize=13;fontColor=#000000;" parent="1" vertex="1">
                    <mxGeometry x="210" y="720" width="100" height="100" as="geometry"/>
                </mxCell>
                <mxCell id="gP1NRVliO_AB3EFOHZDK-269" style="edgeStyle=orthogonalEdgeStyle;rounded=0;orthogonalLoop=1;jettySize=auto;html=1;exitX=1;exitY=0.5;exitDx=0;exitDy=0;entryX=0;entryY=0.5;entryDx=0;entryDy=0;fontSize=13;fontColor=#000000;" parent="1" source="gP1NRVliO_AB3EFOHZDK-138" target="gP1NRVliO_AB3EFOHZDK-141" edge="1">
                    <mxGeometry relative="1" as="geometry"/>
                </mxCell>
                <mxCell id="gP1NRVliO_AB3EFOHZDK-270" value="No" style="edgeLabel;html=1;align=center;verticalAlign=middle;resizable=0;points=[];fontSize=13;fontColor=#000000;" parent="gP1NRVliO_AB3EFOHZDK-269" vertex="1" connectable="0">
                    <mxGeometry x="-0.3333" y="-3" relative="1" as="geometry">
                        <mxPoint y="-13" as="offset"/>
                    </mxGeometry>
                </mxCell>
                <mxCell id="gP1NRVliO_AB3EFOHZDK-280" style="edgeStyle=orthogonalEdgeStyle;rounded=0;orthogonalLoop=1;jettySize=auto;html=1;exitX=0.5;exitY=1;exitDx=0;exitDy=0;entryX=0.5;entryY=1;entryDx=0;entryDy=0;fontSize=13;fontColor=#000000;" parent="1" source="gP1NRVliO_AB3EFOHZDK-138" target="gP1NRVliO_AB3EFOHZDK-146" edge="1">
                    <mxGeometry relative="1" as="geometry">
                        <Array as="points">
                            <mxPoint x="420" y="830"/>
                            <mxPoint x="740" y="830"/>
                        </Array>
                    </mxGeometry>
                </mxCell>
                <mxCell id="gP1NRVliO_AB3EFOHZDK-281" value="Yes" style="edgeLabel;html=1;align=center;verticalAlign=middle;resizable=0;points=[];fontSize=13;fontColor=#000000;" parent="gP1NRVliO_AB3EFOHZDK-280" vertex="1" connectable="0">
                    <mxGeometry x="-0.8294" y="2" relative="1" as="geometry">
                        <mxPoint as="offset"/>
                    </mxGeometry>
                </mxCell>
                <mxCell id="gP1NRVliO_AB3EFOHZDK-138" value="&lt;div&gt;&lt;font style=&quot;color: rgb(0, 0, 0);&quot;&gt;1900&lt;/font&gt;&lt;div&gt;&lt;font style=&quot;color: rgb(0, 0, 0);&quot;&gt;(UDP) already blocked?&lt;/font&gt;&lt;/div&gt;&lt;/div&gt;" style="rhombus;whiteSpace=wrap;html=1;fontSize=13;fontColor=#000000;" parent="1" vertex="1">
                    <mxGeometry x="370" y="720" width="100" height="100" as="geometry"/>
                </mxCell>
                <mxCell id="gP1NRVliO_AB3EFOHZDK-271" style="edgeStyle=orthogonalEdgeStyle;rounded=0;orthogonalLoop=1;jettySize=auto;html=1;exitX=1;exitY=0.5;exitDx=0;exitDy=0;entryX=0;entryY=0.5;entryDx=0;entryDy=0;fontSize=13;fontColor=#000000;" parent="1" source="gP1NRVliO_AB3EFOHZDK-141" target="gP1NRVliO_AB3EFOHZDK-146" edge="1">
                    <mxGeometry relative="1" as="geometry"/>
                </mxCell>
                <mxCell id="gP1NRVliO_AB3EFOHZDK-141" value="Append the rule to &quot;/etc/pf.conf&quot; and reload pf rules." style="rounded=0;whiteSpace=wrap;html=1;fontSize=13;fontColor=#000000;" parent="1" vertex="1">
                    <mxGeometry x="500" y="740" width="120" height="60" as="geometry"/>
                </mxCell>
                <mxCell id="gP1NRVliO_AB3EFOHZDK-272" style="edgeStyle=orthogonalEdgeStyle;rounded=0;orthogonalLoop=1;jettySize=auto;html=1;exitX=1;exitY=0.5;exitDx=0;exitDy=0;fontSize=13;fontColor=#000000;" parent="1" source="gP1NRVliO_AB3EFOHZDK-146" target="gP1NRVliO_AB3EFOHZDK-149" edge="1">
                    <mxGeometry relative="1" as="geometry"/>
                </mxCell>
                <mxCell id="gP1NRVliO_AB3EFOHZDK-273" value="Yes" style="edgeLabel;html=1;align=center;verticalAlign=middle;resizable=0;points=[];fontSize=13;fontColor=#000000;" parent="gP1NRVliO_AB3EFOHZDK-272" vertex="1" connectable="0">
                    <mxGeometry x="-0.0857" y="-1" relative="1" as="geometry">
                        <mxPoint as="offset"/>
                    </mxGeometry>
                </mxCell>
                <mxCell id="gP1NRVliO_AB3EFOHZDK-282" style="edgeStyle=orthogonalEdgeStyle;rounded=0;orthogonalLoop=1;jettySize=auto;html=1;exitX=0.5;exitY=0;exitDx=0;exitDy=0;entryX=1;entryY=0.5;entryDx=0;entryDy=0;fontSize=13;fontColor=#000000;" parent="1" source="gP1NRVliO_AB3EFOHZDK-146" target="gP1NRVliO_AB3EFOHZDK-159" edge="1">
                    <mxGeometry relative="1" as="geometry">
                        <Array as="points">
                            <mxPoint x="740" y="700"/>
                            <mxPoint x="1230" y="700"/>
                            <mxPoint x="1230" y="940"/>
                        </Array>
                    </mxGeometry>
                </mxCell>
                <mxCell id="gP1NRVliO_AB3EFOHZDK-283" value="No" style="edgeLabel;html=1;align=center;verticalAlign=middle;resizable=0;points=[];fontSize=13;fontColor=#000000;" parent="gP1NRVliO_AB3EFOHZDK-282" vertex="1" connectable="0">
                    <mxGeometry x="-0.8697" y="-1" relative="1" as="geometry">
                        <mxPoint as="offset"/>
                    </mxGeometry>
                </mxCell>
                <mxCell id="gP1NRVliO_AB3EFOHZDK-146" value="&lt;font style=&quot;color: rgb(0, 0, 0);&quot;&gt;Block&amp;nbsp;&lt;/font&gt;&lt;div&gt;&lt;span style=&quot;background-color: transparent;&quot;&gt;&lt;font style=&quot;color: rgb(0, 0, 0);&quot;&gt;20-21&lt;/font&gt;&lt;/span&gt;&lt;div&gt;&lt;span style=&quot;background-color: transparent;&quot;&gt;&lt;font style=&quot;color: rgb(0, 0, 0);&quot;&gt;(TCP)?&lt;/font&gt;&lt;/span&gt;&lt;/div&gt;&lt;/div&gt;" style="rhombus;whiteSpace=wrap;html=1;fontSize=13;fontColor=#000000;" parent="1" vertex="1">
                    <mxGeometry x="690" y="720" width="100" height="100" as="geometry"/>
                </mxCell>
                <mxCell id="gP1NRVliO_AB3EFOHZDK-274" style="edgeStyle=orthogonalEdgeStyle;rounded=0;orthogonalLoop=1;jettySize=auto;html=1;exitX=1;exitY=0.5;exitDx=0;exitDy=0;entryX=0;entryY=0.5;entryDx=0;entryDy=0;fontSize=13;fontColor=#000000;" parent="1" source="gP1NRVliO_AB3EFOHZDK-149" target="gP1NRVliO_AB3EFOHZDK-156" edge="1">
                    <mxGeometry relative="1" as="geometry"/>
                </mxCell>
                <mxCell id="gP1NRVliO_AB3EFOHZDK-275" value="No" style="edgeLabel;html=1;align=center;verticalAlign=middle;resizable=0;points=[];fontSize=13;fontColor=#000000;" parent="gP1NRVliO_AB3EFOHZDK-274" vertex="1" connectable="0">
                    <mxGeometry x="-0.2667" y="1" relative="1" as="geometry">
                        <mxPoint as="offset"/>
                    </mxGeometry>
                </mxCell>
                <mxCell id="gP1NRVliO_AB3EFOHZDK-284" style="edgeStyle=orthogonalEdgeStyle;rounded=0;orthogonalLoop=1;jettySize=auto;html=1;exitX=0.5;exitY=0;exitDx=0;exitDy=0;entryX=1;entryY=0.5;entryDx=0;entryDy=0;fontSize=13;fontColor=#000000;" parent="1" source="gP1NRVliO_AB3EFOHZDK-149" target="gP1NRVliO_AB3EFOHZDK-159" edge="1">
                    <mxGeometry relative="1" as="geometry">
                        <Array as="points">
                            <mxPoint x="910" y="710"/>
                            <mxPoint x="1230" y="710"/>
                            <mxPoint x="1230" y="940"/>
                        </Array>
                    </mxGeometry>
                </mxCell>
                <mxCell id="gP1NRVliO_AB3EFOHZDK-285" value="Yes" style="edgeLabel;html=1;align=center;verticalAlign=middle;resizable=0;points=[];fontSize=13;fontColor=#000000;" parent="gP1NRVliO_AB3EFOHZDK-284" vertex="1" connectable="0">
                    <mxGeometry x="-0.8978" y="-1" relative="1" as="geometry">
                        <mxPoint as="offset"/>
                    </mxGeometry>
                </mxCell>
                <mxCell id="gP1NRVliO_AB3EFOHZDK-149" value="&lt;div&gt;&lt;font style=&quot;color: rgb(0, 0, 0);&quot;&gt;20-21&amp;nbsp;&lt;/font&gt;&lt;div&gt;&lt;font style=&quot;color: rgb(0, 0, 0);&quot;&gt;(TCP) already blocked?&lt;/font&gt;&lt;/div&gt;&lt;/div&gt;" style="rhombus;whiteSpace=wrap;html=1;fontSize=13;fontColor=#000000;" parent="1" vertex="1">
                    <mxGeometry x="860" y="720" width="100" height="100" as="geometry"/>
                </mxCell>
                <mxCell id="28" style="edgeStyle=orthogonalEdgeStyle;html=1;exitX=1;exitY=0.5;exitDx=0;exitDy=0;entryX=1;entryY=0;entryDx=0;entryDy=0;rounded=0;curved=0;" edge="1" parent="1" source="gP1NRVliO_AB3EFOHZDK-156" target="gP1NRVliO_AB3EFOHZDK-159">
                    <mxGeometry relative="1" as="geometry">
                        <Array as="points">
                            <mxPoint x="1150" y="770"/>
                            <mxPoint x="1150" y="915"/>
                        </Array>
                    </mxGeometry>
                </mxCell>
                <mxCell id="gP1NRVliO_AB3EFOHZDK-156" value="Append the rule to &quot;/etc/pf.conf&quot; and reload pf rules." style="rounded=0;whiteSpace=wrap;html=1;fontSize=13;fontColor=#000000;" parent="1" vertex="1">
                    <mxGeometry x="1020" y="740" width="120" height="60" as="geometry"/>
                </mxCell>
                <mxCell id="gP1NRVliO_AB3EFOHZDK-286" style="edgeStyle=orthogonalEdgeStyle;rounded=0;orthogonalLoop=1;jettySize=auto;html=1;exitX=0;exitY=0.5;exitDx=0;exitDy=0;entryX=1;entryY=0.5;entryDx=0;entryDy=0;fontSize=13;fontColor=#000000;" parent="1" source="gP1NRVliO_AB3EFOHZDK-159" target="gP1NRVliO_AB3EFOHZDK-166" edge="1">
                    <mxGeometry relative="1" as="geometry"/>
                </mxCell>
                <mxCell id="gP1NRVliO_AB3EFOHZDK-289" value="Yes" style="edgeLabel;html=1;align=center;verticalAlign=middle;resizable=0;points=[];fontSize=13;fontColor=#000000;" parent="gP1NRVliO_AB3EFOHZDK-286" vertex="1" connectable="0">
                    <mxGeometry x="-0.0857" y="-2" relative="1" as="geometry">
                        <mxPoint as="offset"/>
                    </mxGeometry>
                </mxCell>
                <mxCell id="gP1NRVliO_AB3EFOHZDK-297" style="edgeStyle=orthogonalEdgeStyle;rounded=0;orthogonalLoop=1;jettySize=auto;html=1;exitX=0.5;exitY=0;exitDx=0;exitDy=0;entryX=0.5;entryY=0;entryDx=0;entryDy=0;fontSize=13;fontColor=#000000;" parent="1" source="gP1NRVliO_AB3EFOHZDK-159" target="gP1NRVliO_AB3EFOHZDK-172" edge="1">
                    <mxGeometry relative="1" as="geometry">
                        <mxPoint x="1080" y="880" as="sourcePoint"/>
                        <mxPoint x="570" y="880" as="targetPoint"/>
                        <Array as="points">
                            <mxPoint x="1080" y="860"/>
                            <mxPoint x="570" y="860"/>
                        </Array>
                    </mxGeometry>
                </mxCell>
                <mxCell id="gP1NRVliO_AB3EFOHZDK-298" value="No" style="edgeLabel;html=1;align=center;verticalAlign=middle;resizable=0;points=[];fontSize=13;fontColor=#000000;" parent="gP1NRVliO_AB3EFOHZDK-297" vertex="1" connectable="0">
                    <mxGeometry x="-0.8764" y="-1" relative="1" as="geometry">
                        <mxPoint as="offset"/>
                    </mxGeometry>
                </mxCell>
                <mxCell id="gP1NRVliO_AB3EFOHZDK-159" value="&lt;font style=&quot;color: rgb(0, 0, 0);&quot;&gt;Block&amp;nbsp;&lt;/font&gt;&lt;div&gt;&lt;span style=&quot;background-color: transparent;&quot;&gt;&lt;font style=&quot;color: rgb(0, 0, 0);&quot;&gt;20-21&lt;/font&gt;&lt;/span&gt;&lt;div&gt;&lt;span style=&quot;background-color: transparent;&quot;&gt;&lt;font style=&quot;color: rgb(0, 0, 0);&quot;&gt;(UDP)?&lt;/font&gt;&lt;/span&gt;&lt;/div&gt;&lt;/div&gt;" style="rhombus;whiteSpace=wrap;html=1;fontSize=13;fontColor=#000000;" parent="1" vertex="1">
                    <mxGeometry x="1030" y="890" width="100" height="100" as="geometry"/>
                </mxCell>
                <mxCell id="gP1NRVliO_AB3EFOHZDK-287" style="edgeStyle=orthogonalEdgeStyle;rounded=0;orthogonalLoop=1;jettySize=auto;html=1;exitX=0;exitY=0.5;exitDx=0;exitDy=0;entryX=1;entryY=0.5;entryDx=0;entryDy=0;fontSize=13;fontColor=#000000;" parent="1" source="gP1NRVliO_AB3EFOHZDK-166" target="gP1NRVliO_AB3EFOHZDK-169" edge="1">
                    <mxGeometry relative="1" as="geometry"/>
                </mxCell>
                <mxCell id="gP1NRVliO_AB3EFOHZDK-290" value="No" style="edgeLabel;html=1;align=center;verticalAlign=middle;resizable=0;points=[];fontSize=13;fontColor=#000000;" parent="gP1NRVliO_AB3EFOHZDK-287" vertex="1" connectable="0">
                    <mxGeometry x="-0.3" relative="1" as="geometry">
                        <mxPoint as="offset"/>
                    </mxGeometry>
                </mxCell>
                <mxCell id="gP1NRVliO_AB3EFOHZDK-299" style="edgeStyle=orthogonalEdgeStyle;rounded=0;orthogonalLoop=1;jettySize=auto;html=1;exitX=0.5;exitY=0;exitDx=0;exitDy=0;entryX=0.5;entryY=0;entryDx=0;entryDy=0;fontSize=13;fontColor=#000000;" parent="1" source="gP1NRVliO_AB3EFOHZDK-166" target="gP1NRVliO_AB3EFOHZDK-172" edge="1">
                    <mxGeometry relative="1" as="geometry"/>
                </mxCell>
                <mxCell id="gP1NRVliO_AB3EFOHZDK-300" value="Yes" style="edgeLabel;html=1;align=center;verticalAlign=middle;resizable=0;points=[];fontSize=13;fontColor=#000000;" parent="gP1NRVliO_AB3EFOHZDK-299" vertex="1" connectable="0">
                    <mxGeometry x="-0.7684" y="1" relative="1" as="geometry">
                        <mxPoint as="offset"/>
                    </mxGeometry>
                </mxCell>
                <mxCell id="gP1NRVliO_AB3EFOHZDK-166" value="&lt;div&gt;&lt;font style=&quot;color: rgb(0, 0, 0);&quot;&gt;20-21&amp;nbsp;&lt;/font&gt;&lt;div&gt;&lt;font style=&quot;color: rgb(0, 0, 0);&quot;&gt;(UDP) already blocked?&lt;/font&gt;&lt;/div&gt;&lt;/div&gt;" style="rhombus;whiteSpace=wrap;html=1;fontSize=13;fontColor=#000000;" parent="1" vertex="1">
                    <mxGeometry x="860" y="890" width="100" height="100" as="geometry"/>
                </mxCell>
                <mxCell id="gP1NRVliO_AB3EFOHZDK-288" style="edgeStyle=orthogonalEdgeStyle;rounded=0;orthogonalLoop=1;jettySize=auto;html=1;exitX=0;exitY=0.5;exitDx=0;exitDy=0;entryX=1;entryY=0.5;entryDx=0;entryDy=0;fontSize=13;fontColor=#000000;" parent="1" source="gP1NRVliO_AB3EFOHZDK-169" target="gP1NRVliO_AB3EFOHZDK-172" edge="1">
                    <mxGeometry relative="1" as="geometry"/>
                </mxCell>
                <mxCell id="gP1NRVliO_AB3EFOHZDK-169" value="Append the rule to &quot;/etc/pf.conf&quot; and reload pf rules." style="rounded=0;whiteSpace=wrap;html=1;fontSize=13;fontColor=#000000;" parent="1" vertex="1">
                    <mxGeometry x="680" y="910" width="120" height="60" as="geometry"/>
                </mxCell>
                <mxCell id="gP1NRVliO_AB3EFOHZDK-291" style="edgeStyle=orthogonalEdgeStyle;rounded=0;orthogonalLoop=1;jettySize=auto;html=1;exitX=0;exitY=0.5;exitDx=0;exitDy=0;entryX=1;entryY=0.5;entryDx=0;entryDy=0;fontSize=13;fontColor=#000000;" parent="1" source="gP1NRVliO_AB3EFOHZDK-172" target="gP1NRVliO_AB3EFOHZDK-179" edge="1">
                    <mxGeometry relative="1" as="geometry"/>
                </mxCell>
                <mxCell id="gP1NRVliO_AB3EFOHZDK-292" value="Yes" style="edgeLabel;html=1;align=center;verticalAlign=middle;resizable=0;points=[];fontSize=13;fontColor=#000000;" parent="gP1NRVliO_AB3EFOHZDK-291" vertex="1" connectable="0">
                    <mxGeometry x="-0.04" y="1" relative="1" as="geometry">
                        <mxPoint as="offset"/>
                    </mxGeometry>
                </mxCell>
                <mxCell id="9" style="edgeStyle=orthogonalEdgeStyle;html=1;exitX=0.5;exitY=1;exitDx=0;exitDy=0;entryX=1;entryY=0;entryDx=0;entryDy=0;rounded=0;curved=0;" edge="1" parent="1" source="gP1NRVliO_AB3EFOHZDK-172" target="3">
                    <mxGeometry relative="1" as="geometry">
                        <Array as="points">
                            <mxPoint x="570" y="1020"/>
                            <mxPoint x="285" y="1020"/>
                        </Array>
                    </mxGeometry>
                </mxCell>
                <mxCell id="10" value="&lt;font style=&quot;font-size: 13px; color: rgb(0, 0, 0);&quot;&gt;No&lt;/font&gt;" style="edgeLabel;html=1;align=center;verticalAlign=middle;resizable=0;points=[];" vertex="1" connectable="0" parent="9">
                    <mxGeometry x="-0.68" relative="1" as="geometry">
                        <mxPoint x="6" y="-10" as="offset"/>
                    </mxGeometry>
                </mxCell>
                <mxCell id="gP1NRVliO_AB3EFOHZDK-172" value="&lt;font style=&quot;color: rgb(0, 0, 0);&quot;&gt;Block&amp;nbsp;&lt;/font&gt;&lt;div&gt;&lt;span style=&quot;background-color: transparent;&quot;&gt;&lt;font style=&quot;color: rgb(0, 0, 0);&quot;&gt;23&lt;/font&gt;&lt;/span&gt;&lt;div&gt;&lt;span style=&quot;background-color: transparent;&quot;&gt;&lt;font style=&quot;color: rgb(0, 0, 0);&quot;&gt;(TCP)?&lt;/font&gt;&lt;/span&gt;&lt;/div&gt;&lt;/div&gt;" style="rhombus;whiteSpace=wrap;html=1;fontSize=13;fontColor=#000000;" parent="1" vertex="1">
                    <mxGeometry x="520" y="890" width="100" height="100" as="geometry"/>
                </mxCell>
                <mxCell id="gP1NRVliO_AB3EFOHZDK-293" style="edgeStyle=orthogonalEdgeStyle;rounded=0;orthogonalLoop=1;jettySize=auto;html=1;exitX=0;exitY=0.5;exitDx=0;exitDy=0;entryX=1;entryY=0.5;entryDx=0;entryDy=0;fontSize=13;fontColor=#000000;" parent="1" source="gP1NRVliO_AB3EFOHZDK-179" target="gP1NRVliO_AB3EFOHZDK-182" edge="1">
                    <mxGeometry relative="1" as="geometry"/>
                </mxCell>
                <mxCell id="gP1NRVliO_AB3EFOHZDK-294" value="No" style="edgeLabel;html=1;align=center;verticalAlign=middle;resizable=0;points=[];fontSize=13;fontColor=#000000;" parent="gP1NRVliO_AB3EFOHZDK-293" vertex="1" connectable="0">
                    <mxGeometry x="-0.12" relative="1" as="geometry">
                        <mxPoint as="offset"/>
                    </mxGeometry>
                </mxCell>
                <mxCell id="7" style="edgeStyle=orthogonalEdgeStyle;html=1;exitX=0.5;exitY=1;exitDx=0;exitDy=0;entryX=1;entryY=0;entryDx=0;entryDy=0;rounded=0;curved=0;" edge="1" parent="1" source="gP1NRVliO_AB3EFOHZDK-179" target="3">
                    <mxGeometry relative="1" as="geometry"/>
                </mxCell>
                <mxCell id="8" value="&lt;font style=&quot;font-size: 13px; color: rgb(0, 0, 0);&quot;&gt;Yes&lt;/font&gt;" style="edgeLabel;html=1;align=center;verticalAlign=middle;resizable=0;points=[];" vertex="1" connectable="0" parent="7">
                    <mxGeometry x="-0.29" y="2" relative="1" as="geometry">
                        <mxPoint x="31" y="-12" as="offset"/>
                    </mxGeometry>
                </mxCell>
                <mxCell id="gP1NRVliO_AB3EFOHZDK-179" value="&lt;div&gt;&lt;font style=&quot;color: rgb(0, 0, 0);&quot;&gt;23&lt;/font&gt;&lt;div&gt;&lt;font style=&quot;color: rgb(0, 0, 0);&quot;&gt;(TCP) already blocked?&lt;/font&gt;&lt;/div&gt;&lt;/div&gt;" style="rhombus;whiteSpace=wrap;html=1;fontSize=13;fontColor=#000000;" parent="1" vertex="1">
                    <mxGeometry x="370" y="890" width="100" height="100" as="geometry"/>
                </mxCell>
                <mxCell id="4" style="edgeStyle=none;html=1;exitX=0.5;exitY=1;exitDx=0;exitDy=0;entryX=0.5;entryY=0;entryDx=0;entryDy=0;" edge="1" parent="1" source="gP1NRVliO_AB3EFOHZDK-182" target="3">
                    <mxGeometry relative="1" as="geometry"/>
                </mxCell>
                <mxCell id="gP1NRVliO_AB3EFOHZDK-182" value="Append the rule to &quot;/etc/pf.conf&quot; and reload pf rules." style="rounded=0;whiteSpace=wrap;html=1;fontSize=13;fontColor=#000000;" parent="1" vertex="1">
                    <mxGeometry x="200" y="910" width="120" height="60" as="geometry"/>
                </mxCell>
                <mxCell id="gP1NRVliO_AB3EFOHZDK-184" value="&lt;font style=&quot;color: rgb(255, 255, 255);&quot;&gt;End&lt;/font&gt;" style="ellipse;html=1;shape=endState;fillColor=#000000;strokeColor=#ff0000;fontSize=13;" parent="1" vertex="1">
                    <mxGeometry x="230" y="1350" width="60" height="60" as="geometry"/>
                </mxCell>
                <mxCell id="13" style="edgeStyle=orthogonalEdgeStyle;html=1;exitX=1;exitY=0.5;exitDx=0;exitDy=0;entryX=0;entryY=0.5;entryDx=0;entryDy=0;" edge="1" parent="1" source="3" target="12">
                    <mxGeometry relative="1" as="geometry"/>
                </mxCell>
                <mxCell id="14" value="&lt;font style=&quot;font-size: 13px; color: rgb(0, 0, 0);&quot;&gt;Yes&lt;/font&gt;" style="edgeLabel;html=1;align=center;verticalAlign=middle;resizable=0;points=[];" vertex="1" connectable="0" parent="13">
                    <mxGeometry x="0.2333" relative="1" as="geometry">
                        <mxPoint as="offset"/>
                    </mxGeometry>
                </mxCell>
                <mxCell id="20" style="edgeStyle=orthogonalEdgeStyle;html=1;exitX=0.5;exitY=1;exitDx=0;exitDy=0;entryX=0.5;entryY=1;entryDx=0;entryDy=0;rounded=0;curved=0;" edge="1" parent="1" source="3" target="18">
                    <mxGeometry relative="1" as="geometry">
                        <Array as="points">
                            <mxPoint x="260" y="1150"/>
                            <mxPoint x="740" y="1150"/>
                        </Array>
                    </mxGeometry>
                </mxCell>
                <mxCell id="21" value="&lt;font style=&quot;font-size: 13px; color: rgb(0, 0, 0);&quot;&gt;No&lt;/font&gt;" style="edgeLabel;html=1;align=center;verticalAlign=middle;resizable=0;points=[];fontColor=#000000;" vertex="1" connectable="0" parent="20">
                    <mxGeometry x="-0.8577" y="1" relative="1" as="geometry">
                        <mxPoint as="offset"/>
                    </mxGeometry>
                </mxCell>
                <mxCell id="3" value="&lt;font style=&quot;color: rgb(0, 0, 0);&quot;&gt;Block&amp;nbsp;&lt;/font&gt;&lt;div&gt;&lt;span style=&quot;background-color: transparent;&quot;&gt;&lt;font style=&quot;color: rgb(0, 0, 0);&quot;&gt;110&lt;/font&gt;&lt;/span&gt;&lt;div&gt;&lt;span style=&quot;background-color: transparent;&quot;&gt;&lt;font style=&quot;color: rgb(0, 0, 0);&quot;&gt;(TCP)?&lt;/font&gt;&lt;/span&gt;&lt;/div&gt;&lt;/div&gt;" style="rhombus;whiteSpace=wrap;html=1;fontSize=13;fontColor=#000000;" vertex="1" parent="1">
                    <mxGeometry x="210" y="1030" width="100" height="100" as="geometry"/>
                </mxCell>
                <mxCell id="16" style="edgeStyle=orthogonalEdgeStyle;html=1;exitX=1;exitY=0.5;exitDx=0;exitDy=0;entryX=0;entryY=0.5;entryDx=0;entryDy=0;" edge="1" parent="1" source="12" target="15">
                    <mxGeometry relative="1" as="geometry"/>
                </mxCell>
                <mxCell id="17" value="&lt;font style=&quot;font-size: 13px; color: rgb(0, 0, 0);&quot;&gt;No&lt;/font&gt;" style="edgeLabel;html=1;align=center;verticalAlign=middle;resizable=0;points=[];fontColor=#000000;" vertex="1" connectable="0" parent="16">
                    <mxGeometry x="-0.4667" relative="1" as="geometry">
                        <mxPoint x="2" y="-10" as="offset"/>
                    </mxGeometry>
                </mxCell>
                <mxCell id="22" style="edgeStyle=orthogonalEdgeStyle;html=1;exitX=0.5;exitY=1;exitDx=0;exitDy=0;entryX=0.5;entryY=1;entryDx=0;entryDy=0;rounded=0;curved=0;" edge="1" parent="1" source="12" target="18">
                    <mxGeometry relative="1" as="geometry"/>
                </mxCell>
                <mxCell id="23" value="&lt;font style=&quot;font-size: 13px; color: rgb(0, 0, 0);&quot;&gt;Yes&lt;/font&gt;" style="edgeLabel;html=1;align=center;verticalAlign=middle;resizable=0;points=[];fontColor=#000000;" vertex="1" connectable="0" parent="22">
                    <mxGeometry x="-0.7941" y="1" relative="1" as="geometry">
                        <mxPoint as="offset"/>
                    </mxGeometry>
                </mxCell>
                <mxCell id="12" value="&lt;div&gt;&lt;font style=&quot;color: rgb(0, 0, 0);&quot;&gt;110&lt;/font&gt;&lt;div&gt;&lt;font style=&quot;color: rgb(0, 0, 0);&quot;&gt;(TCP) already blocked?&lt;/font&gt;&lt;/div&gt;&lt;/div&gt;" style="rhombus;whiteSpace=wrap;html=1;fontSize=13;fontColor=#000000;" vertex="1" parent="1">
                    <mxGeometry x="370" y="1030" width="100" height="100" as="geometry"/>
                </mxCell>
                <mxCell id="19" style="edgeStyle=orthogonalEdgeStyle;html=1;exitX=1;exitY=0.5;exitDx=0;exitDy=0;entryX=0;entryY=0.5;entryDx=0;entryDy=0;" edge="1" parent="1" source="15" target="18">
                    <mxGeometry relative="1" as="geometry"/>
                </mxCell>
                <mxCell id="15" value="Append the rule to &quot;/etc/pf.conf&quot; and reload pf rules." style="rounded=0;whiteSpace=wrap;html=1;fontSize=13;fontColor=#000000;" vertex="1" parent="1">
                    <mxGeometry x="500" y="1050" width="120" height="60" as="geometry"/>
                </mxCell>
                <mxCell id="25" style="edgeStyle=orthogonalEdgeStyle;html=1;exitX=1;exitY=0.5;exitDx=0;exitDy=0;entryX=0;entryY=0.5;entryDx=0;entryDy=0;" edge="1" parent="1" source="18" target="24">
                    <mxGeometry relative="1" as="geometry"/>
                </mxCell>
                <mxCell id="26" value="&lt;font style=&quot;font-size: 13px; color: rgb(0, 0, 0);&quot;&gt;Yes&lt;/font&gt;" style="edgeLabel;html=1;align=center;verticalAlign=middle;resizable=0;points=[];" vertex="1" connectable="0" parent="25">
                    <mxGeometry x="-0.3143" y="-1" relative="1" as="geometry">
                        <mxPoint as="offset"/>
                    </mxGeometry>
                </mxCell>
                <mxCell id="32" style="edgeStyle=orthogonalEdgeStyle;html=1;exitX=0.5;exitY=0;exitDx=0;exitDy=0;entryX=1;entryY=0.5;entryDx=0;entryDy=0;rounded=0;curved=0;" edge="1" parent="1" source="18" target="31">
                    <mxGeometry relative="1" as="geometry">
                        <Array as="points">
                            <mxPoint x="740" y="1010"/>
                            <mxPoint x="1230" y="1010"/>
                            <mxPoint x="1230" y="1260"/>
                        </Array>
                    </mxGeometry>
                </mxCell>
                <mxCell id="33" value="&lt;font style=&quot;font-size: 13px; color: rgb(0, 0, 0);&quot;&gt;No&lt;/font&gt;" style="edgeLabel;html=1;align=center;verticalAlign=middle;resizable=0;points=[];" vertex="1" connectable="0" parent="32">
                    <mxGeometry x="-0.8462" y="-1" relative="1" as="geometry">
                        <mxPoint as="offset"/>
                    </mxGeometry>
                </mxCell>
                <mxCell id="18" value="&lt;font style=&quot;color: rgb(0, 0, 0);&quot;&gt;Block&amp;nbsp;&lt;/font&gt;&lt;div&gt;&lt;div&gt;&lt;span style=&quot;background-color: transparent;&quot;&gt;&lt;font style=&quot;color: rgb(0, 0, 0);&quot;&gt;995&lt;/font&gt;&lt;/span&gt;&lt;/div&gt;&lt;div&gt;&lt;span style=&quot;background-color: transparent;&quot;&gt;&lt;font style=&quot;color: rgb(0, 0, 0);&quot;&gt;(TCP)?&lt;/font&gt;&lt;/span&gt;&lt;/div&gt;&lt;/div&gt;" style="rhombus;whiteSpace=wrap;html=1;fontSize=13;fontColor=#000000;" vertex="1" parent="1">
                    <mxGeometry x="690" y="1030" width="100" height="100" as="geometry"/>
                </mxCell>
                <mxCell id="29" style="edgeStyle=orthogonalEdgeStyle;html=1;exitX=1;exitY=0.5;exitDx=0;exitDy=0;entryX=0;entryY=0.5;entryDx=0;entryDy=0;" edge="1" parent="1" source="24" target="27">
                    <mxGeometry relative="1" as="geometry"/>
                </mxCell>
                <mxCell id="30" value="&lt;font style=&quot;font-size: 13px; color: rgb(0, 0, 0);&quot;&gt;No&lt;/font&gt;" style="edgeLabel;html=1;align=center;verticalAlign=middle;resizable=0;points=[];" vertex="1" connectable="0" parent="29">
                    <mxGeometry x="-0.15" y="-1" relative="1" as="geometry">
                        <mxPoint as="offset"/>
                    </mxGeometry>
                </mxCell>
                <mxCell id="34" style="edgeStyle=orthogonalEdgeStyle;html=1;exitX=0.5;exitY=0;exitDx=0;exitDy=0;entryX=1;entryY=0.5;entryDx=0;entryDy=0;rounded=0;curved=0;" edge="1" parent="1" source="24" target="31">
                    <mxGeometry relative="1" as="geometry">
                        <Array as="points">
                            <mxPoint x="910" y="1020"/>
                            <mxPoint x="1230" y="1020"/>
                            <mxPoint x="1230" y="1260"/>
                        </Array>
                    </mxGeometry>
                </mxCell>
                <mxCell id="35" value="&lt;font style=&quot;font-size: 13px; color: rgb(0, 0, 0);&quot;&gt;Yes&lt;/font&gt;" style="edgeLabel;html=1;align=center;verticalAlign=middle;resizable=0;points=[];" vertex="1" connectable="0" parent="34">
                    <mxGeometry x="-0.8824" y="-1" relative="1" as="geometry">
                        <mxPoint as="offset"/>
                    </mxGeometry>
                </mxCell>
                <mxCell id="24" value="&lt;div&gt;&lt;div&gt;&lt;font style=&quot;color: rgb(0, 0, 0);&quot;&gt;995&lt;/font&gt;&lt;/div&gt;&lt;div&gt;&lt;font style=&quot;color: rgb(0, 0, 0);&quot;&gt;(TCP) already blocked?&lt;/font&gt;&lt;/div&gt;&lt;/div&gt;" style="rhombus;whiteSpace=wrap;html=1;fontSize=13;fontColor=#000000;" vertex="1" parent="1">
                    <mxGeometry x="860" y="1030" width="100" height="100" as="geometry"/>
                </mxCell>
                <mxCell id="36" style="edgeStyle=orthogonalEdgeStyle;html=1;exitX=1;exitY=0.5;exitDx=0;exitDy=0;entryX=1;entryY=0;entryDx=0;entryDy=0;rounded=0;curved=0;" edge="1" parent="1" source="27" target="31">
                    <mxGeometry relative="1" as="geometry">
                        <Array as="points">
                            <mxPoint x="1160" y="1080"/>
                            <mxPoint x="1160" y="1235"/>
                        </Array>
                    </mxGeometry>
                </mxCell>
                <mxCell id="27" value="Append the rule to &quot;/etc/pf.conf&quot; and reload pf rules." style="rounded=0;whiteSpace=wrap;html=1;fontSize=13;fontColor=#000000;" vertex="1" parent="1">
                    <mxGeometry x="1020" y="1050" width="120" height="60" as="geometry"/>
                </mxCell>
                <mxCell id="39" style="edgeStyle=orthogonalEdgeStyle;html=1;exitX=0;exitY=0.5;exitDx=0;exitDy=0;entryX=1;entryY=0.5;entryDx=0;entryDy=0;" edge="1" parent="1" source="31" target="37">
                    <mxGeometry relative="1" as="geometry"/>
                </mxCell>
                <mxCell id="40" value="&lt;font style=&quot;font-size: 13px; color: rgb(0, 0, 0);&quot;&gt;Yes&lt;/font&gt;" style="edgeLabel;html=1;align=center;verticalAlign=middle;resizable=0;points=[];" vertex="1" connectable="0" parent="39">
                    <mxGeometry x="0.0286" y="1" relative="1" as="geometry">
                        <mxPoint as="offset"/>
                    </mxGeometry>
                </mxCell>
                <mxCell id="45" style="edgeStyle=orthogonalEdgeStyle;html=1;exitX=0.5;exitY=0;exitDx=0;exitDy=0;entryX=0.5;entryY=0;entryDx=0;entryDy=0;rounded=0;curved=0;" edge="1" parent="1" source="31" target="43">
                    <mxGeometry relative="1" as="geometry">
                        <Array as="points">
                            <mxPoint x="1082" y="1170"/>
                            <mxPoint x="572" y="1170"/>
                        </Array>
                    </mxGeometry>
                </mxCell>
                <mxCell id="46" value="&lt;font style=&quot;font-size: 13px; color: rgb(0, 0, 0);&quot;&gt;No&lt;/font&gt;" style="edgeLabel;html=1;align=center;verticalAlign=middle;resizable=0;points=[];" vertex="1" connectable="0" parent="45">
                    <mxGeometry x="-0.8943" relative="1" as="geometry">
                        <mxPoint x="-12" y="-10" as="offset"/>
                    </mxGeometry>
                </mxCell>
                <mxCell id="31" value="&lt;font style=&quot;color: rgb(0, 0, 0);&quot;&gt;Block&amp;nbsp;&lt;/font&gt;&lt;div&gt;&lt;div&gt;&lt;span style=&quot;background-color: transparent;&quot;&gt;&lt;font style=&quot;color: rgb(0, 0, 0);&quot;&gt;143&lt;/font&gt;&lt;/span&gt;&lt;/div&gt;&lt;div&gt;&lt;span style=&quot;background-color: transparent;&quot;&gt;&lt;font style=&quot;color: rgb(0, 0, 0);&quot;&gt;(TCP)?&lt;/font&gt;&lt;/span&gt;&lt;/div&gt;&lt;/div&gt;" style="rhombus;whiteSpace=wrap;html=1;fontSize=13;fontColor=#000000;" vertex="1" parent="1">
                    <mxGeometry x="1032" y="1210" width="100" height="100" as="geometry"/>
                </mxCell>
                <mxCell id="41" style="edgeStyle=orthogonalEdgeStyle;html=1;exitX=0;exitY=0.5;exitDx=0;exitDy=0;entryX=1;entryY=0.5;entryDx=0;entryDy=0;" edge="1" parent="1" source="37" target="38">
                    <mxGeometry relative="1" as="geometry"/>
                </mxCell>
                <mxCell id="42" value="&lt;font style=&quot;font-size: 13px; color: rgb(0, 0, 0);&quot;&gt;No&lt;/font&gt;" style="edgeLabel;html=1;align=center;verticalAlign=middle;resizable=0;points=[];" vertex="1" connectable="0" parent="41">
                    <mxGeometry x="-0.3" relative="1" as="geometry">
                        <mxPoint as="offset"/>
                    </mxGeometry>
                </mxCell>
                <mxCell id="48" style="edgeStyle=orthogonalEdgeStyle;html=1;exitX=0.5;exitY=0;exitDx=0;exitDy=0;entryX=0.5;entryY=0;entryDx=0;entryDy=0;rounded=0;curved=0;" edge="1" parent="1" source="37" target="43">
                    <mxGeometry relative="1" as="geometry">
                        <Array as="points">
                            <mxPoint x="912" y="1180"/>
                            <mxPoint x="572" y="1180"/>
                        </Array>
                    </mxGeometry>
                </mxCell>
                <mxCell id="49" value="&lt;font style=&quot;color: rgb(0, 0, 0); font-size: 13px;&quot;&gt;Yes&lt;/font&gt;" style="edgeLabel;html=1;align=center;verticalAlign=middle;resizable=0;points=[];" vertex="1" connectable="0" parent="48">
                    <mxGeometry x="-0.695" y="1" relative="1" as="geometry">
                        <mxPoint as="offset"/>
                    </mxGeometry>
                </mxCell>
                <mxCell id="37" value="&lt;div&gt;&lt;div&gt;&lt;font style=&quot;color: rgb(0, 0, 0);&quot;&gt;143&lt;/font&gt;&lt;/div&gt;&lt;div&gt;&lt;font style=&quot;color: rgb(0, 0, 0);&quot;&gt;(TCP) already blocked?&lt;/font&gt;&lt;/div&gt;&lt;/div&gt;" style="rhombus;whiteSpace=wrap;html=1;fontSize=13;fontColor=#000000;" vertex="1" parent="1">
                    <mxGeometry x="862" y="1210" width="100" height="100" as="geometry"/>
                </mxCell>
                <mxCell id="44" style="edgeStyle=orthogonalEdgeStyle;html=1;exitX=0;exitY=0.5;exitDx=0;exitDy=0;entryX=1;entryY=0.5;entryDx=0;entryDy=0;" edge="1" parent="1" source="38" target="43">
                    <mxGeometry relative="1" as="geometry"/>
                </mxCell>
                <mxCell id="38" value="Append the rule to &quot;/etc/pf.conf&quot; and reload pf rules." style="rounded=0;whiteSpace=wrap;html=1;fontSize=13;fontColor=#000000;" vertex="1" parent="1">
                    <mxGeometry x="682" y="1230" width="120" height="60" as="geometry"/>
                </mxCell>
                <mxCell id="53" style="edgeStyle=orthogonalEdgeStyle;html=1;exitX=0;exitY=0.5;exitDx=0;exitDy=0;entryX=1;entryY=0.5;entryDx=0;entryDy=0;" edge="1" parent="1" source="43" target="50">
                    <mxGeometry relative="1" as="geometry"/>
                </mxCell>
                <mxCell id="54" value="&lt;font style=&quot;font-size: 13px; color: rgb(0, 0, 0);&quot;&gt;Yes&lt;/font&gt;" style="edgeLabel;html=1;align=center;verticalAlign=middle;resizable=0;points=[];" vertex="1" connectable="0" parent="53">
                    <mxGeometry x="-0.0769" relative="1" as="geometry">
                        <mxPoint as="offset"/>
                    </mxGeometry>
                </mxCell>
                <mxCell id="57" style="edgeStyle=orthogonalEdgeStyle;html=1;exitX=0.5;exitY=1;exitDx=0;exitDy=0;entryX=1;entryY=0.5;entryDx=0;entryDy=0;rounded=0;curved=0;" edge="1" parent="1" source="43" target="gP1NRVliO_AB3EFOHZDK-184">
                    <mxGeometry relative="1" as="geometry"/>
                </mxCell>
                <mxCell id="58" value="&lt;font style=&quot;font-size: 13px; color: rgb(0, 0, 0);&quot;&gt;No&lt;/font&gt;" style="edgeLabel;html=1;align=center;verticalAlign=middle;resizable=0;points=[];" vertex="1" connectable="0" parent="57">
                    <mxGeometry x="-0.4545" y="-3" relative="1" as="geometry">
                        <mxPoint as="offset"/>
                    </mxGeometry>
                </mxCell>
                <mxCell id="43" value="&lt;font style=&quot;color: rgb(0, 0, 0);&quot;&gt;Block&amp;nbsp;&lt;/font&gt;&lt;div&gt;&lt;div&gt;&lt;span style=&quot;background-color: transparent;&quot;&gt;&lt;font style=&quot;color: rgb(0, 0, 0);&quot;&gt;993&lt;/font&gt;&lt;/span&gt;&lt;/div&gt;&lt;div&gt;&lt;span style=&quot;background-color: transparent;&quot;&gt;&lt;font style=&quot;color: rgb(0, 0, 0);&quot;&gt;(TCP)?&lt;/font&gt;&lt;/span&gt;&lt;/div&gt;&lt;/div&gt;" style="rhombus;whiteSpace=wrap;html=1;fontSize=13;fontColor=#000000;" vertex="1" parent="1">
                    <mxGeometry x="522" y="1210" width="100" height="100" as="geometry"/>
                </mxCell>
                <mxCell id="55" style="edgeStyle=orthogonalEdgeStyle;html=1;exitX=0;exitY=0.5;exitDx=0;exitDy=0;" edge="1" parent="1" source="50" target="51">
                    <mxGeometry relative="1" as="geometry"/>
                </mxCell>
                <mxCell id="56" value="&lt;font style=&quot;font-size: 13px; color: rgb(0, 0, 0);&quot;&gt;No&lt;/font&gt;" style="edgeLabel;html=1;align=center;verticalAlign=middle;resizable=0;points=[];" vertex="1" connectable="0" parent="55">
                    <mxGeometry x="0.2" y="-1" relative="1" as="geometry">
                        <mxPoint as="offset"/>
                    </mxGeometry>
                </mxCell>
                <mxCell id="59" style="edgeStyle=orthogonalEdgeStyle;html=1;exitX=0.5;exitY=1;exitDx=0;exitDy=0;entryX=1;entryY=0.5;entryDx=0;entryDy=0;rounded=0;curved=0;" edge="1" parent="1" source="50" target="gP1NRVliO_AB3EFOHZDK-184">
                    <mxGeometry relative="1" as="geometry"/>
                </mxCell>
                <mxCell id="60" value="&lt;font style=&quot;font-size: 13px; color: rgb(0, 0, 0);&quot;&gt;Yes&lt;/font&gt;" style="edgeLabel;html=1;align=center;verticalAlign=middle;resizable=0;points=[];" vertex="1" connectable="0" parent="59">
                    <mxGeometry x="-0.71" relative="1" as="geometry">
                        <mxPoint as="offset"/>
                    </mxGeometry>
                </mxCell>
                <mxCell id="50" value="&lt;div&gt;&lt;div&gt;&lt;font style=&quot;color: rgb(0, 0, 0);&quot;&gt;993&lt;/font&gt;&lt;/div&gt;&lt;div&gt;&lt;font style=&quot;color: rgb(0, 0, 0);&quot;&gt;(TCP) already blocked?&lt;/font&gt;&lt;/div&gt;&lt;/div&gt;" style="rhombus;whiteSpace=wrap;html=1;fontSize=13;fontColor=#000000;" vertex="1" parent="1">
                    <mxGeometry x="370" y="1210" width="100" height="100" as="geometry"/>
                </mxCell>
                <mxCell id="52" style="edgeStyle=orthogonalEdgeStyle;html=1;exitX=0.5;exitY=1;exitDx=0;exitDy=0;entryX=0.5;entryY=0;entryDx=0;entryDy=0;" edge="1" parent="1" source="51" target="gP1NRVliO_AB3EFOHZDK-184">
                    <mxGeometry relative="1" as="geometry"/>
                </mxCell>
                <mxCell id="51" value="Append the rule to &quot;/etc/pf.conf&quot; and reload pf rules." style="rounded=0;whiteSpace=wrap;html=1;fontSize=13;fontColor=#000000;" vertex="1" parent="1">
                    <mxGeometry x="200" y="1230" width="120" height="60" as="geometry"/>
                </mxCell>
            </root>
        </mxGraphModel>
    </diagram>
</mxfile>